<?xml version="1.0" encoding="UTF-8"?>
<svg width="250px" height="46px" viewBox="0 0 250 46" version="1.1" xmlns="http://www.w3.org/2000/svg" xmlns:xlink="http://www.w3.org/1999/xlink">
    <title>caes-logo copy</title>
    <g id="Style-guide" stroke="none" stroke-width="1" fill="none" fill-rule="evenodd">
        <g id="caes-logo-copy">
            <path d="M30.6166791,17.4625096 C30.9020018,12.3584136 29.9493343,7.47795538 28.0338519,3.10053207 C27.6231782,2.16101387 27.1522167,1.25567088 26.655588,0.3671157 L0,0.3671157 L0,45.9418422 L7.67864306,45.9418422 C20.2728354,42.4871493 29.8412937,31.2764848 30.6166791,17.4625096" id="Fill-1" fill="#DAAA00"></path>
            <path d="M29.7487728,0.3671157 C32.5142542,4.20972712 34.5407618,8.67768474 35.5465542,13.6252943 C38.0464109,25.9307642 33.6770338,38.036579 25.0845224,45.9418422 L45.375265,45.9418422 L45.375265,0.3671157 L29.7487728,0.3671157" id="Fill-2" fill="#002855"></path>
            <path d="M138.335554,15.4048029 L139.957954,11.0993274 L140.238501,11.3445494 C141.232952,12.1593581 142.582565,12.8524551 143.855772,12.8800351 C144.994676,12.906416 145.550398,12.601837 145.39938,11.6335397 C145.287758,10.911064 144.474767,10.7833567 143.966201,10.6832293 L142.852964,10.4595916 C140.686183,10.052487 138.863819,8.71006124 138.863819,6.16550782 C138.863819,2.31869944 142.164728,0.161464941 145.484738,0.161464941 C147.228311,0.161464941 148.829819,0.607541224 150.326271,1.5866307 L148.920549,5.40166214 C148.148148,4.84286766 146.98119,4.05683808 145.502646,4.0034768 C145.016761,3.98489029 143.902928,4.24210363 144.259283,5.37588085 C144.413286,5.85913016 145.102716,6.06238266 145.527119,6.16550782 L146.785404,6.47068635 C149.131855,7.0198878 150.831256,8.36291316 150.831256,11.1101195 C150.831256,14.9773131 147.510052,16.8905247 144.212127,16.8905247 C142.286497,16.8905247 140.057638,16.3401241 138.335554,15.4048029" id="Fill-3" fill="#DAAA00"></path>
            <polygon id="Fill-4" fill="#DAAA00" points="131.489599 16.6471013 137.141735 16.6471013 137.141735 0.42587306 131.489599 0.42587306"></polygon>
            <polyline id="Fill-5" fill="#DAAA00" points="125.1158 0.425273495 130.904628 0.425273495 124.991046 16.6471013 120.293966 16.6471013 114.399485 0.425273495 120.168615 0.425273495 122.643402 10.2143696 125.1158 0.425273495"></polyline>
            <path d="M109.112061,5.10787534 L109.112061,5.10787534 C109.21473,5.79797454 110.227088,10.7629714 110.227088,10.7629714 L108.004794,10.7629714 L109.112061,5.10787534 Z M100.687282,16.6471013 L106.560274,16.6471013 L107.007359,14.6097798 L111.197663,14.6097798 L111.753983,16.6471013 L117.630556,16.6471013 L112.130036,0.42587306 L105.969333,0.42587306 L100.687282,16.6471013 L100.687282,16.6471013 Z" id="Fill-6" fill="#DAAA00"></path>
            <path d="M86.1656686,0.425273495 L91.9550933,0.425273495 C97.1225383,0.425273495 101.069304,2.8079444 101.069304,8.77061729 C101.069304,13.5743312 97.8531555,16.6471013 93.334551,16.6471013 L86.1656686,16.6381079 L86.1656686,0.425273495 Z M91.8560063,11.9896812 L92.2350438,11.9896812 C94.0979982,11.9896812 95.4804405,10.8666962 95.4804405,8.74963252 C95.4804405,6.47068635 94.2561792,5.19960877 92.2093767,5.19960877 L91.8560063,5.19960877 L91.8560063,11.9896812 L91.8560063,11.9896812 Z" id="Fill-7" fill="#DAAA00"></path>
            <path d="M82.7853705,0.934304093 L83.0874066,3.5969718 C83.157842,4.22831364 83.5177784,5.7440137 83.0724839,5.54136076 C82.7955179,5.41665126 82.5669016,4.72954989 82.340076,4.11859326 C82.2248725,3.80861821 81.674522,2.3432816 81.5306668,2.23535992 C80.8340735,1.71313889 79.0988578,1.12316704 77.9247369,1.11777095 C74.364769,1.10458052 72.0099612,3.74266607 72.0099612,8.42466835 C72.0099612,11.7822318 73.6096785,15.8101087 77.6811978,15.8101087 C79.1400445,15.8101087 81.9335807,15.3490433 82.6946402,13.2643562 C83.0384601,12.320641 83.3524344,11.4818498 83.5798569,11.7372644 C83.7493792,11.92253 83.5291196,12.6779817 83.427645,13.0850863 C82.9477298,15.017484 82.9214658,15.6032589 82.7704477,15.6782045 C80.9313697,16.6069305 78.5717867,16.912109 76.5076739,16.912109 C69.94167,16.912109 67.6752049,13.0647011 67.6752049,9.21849227 C67.6752049,2.54353628 71.7574685,-0.267823525 78.0841117,0.0199676251 C79.6850228,0.0799241148 81.2865309,0.365916571 82.7853705,0.934304093" id="Fill-9" fill="#DAAA00"></path>
            <path d="M63.4013333,1.23048915 L62.3495788,0.86175674 C61.9979992,0.542788215 62.427774,0.453453046 62.427774,0.453453046 C62.427774,0.453453046 63.9469085,0.737047242 67.7319113,0.413881762 C67.7319113,0.413881762 68.0602114,0.480433466 67.8339828,0.74783941 L66.5912173,1.2826513 C65.782405,1.63699415 65.782405,1.43374165 65.782405,2.32409552 L65.7752421,10.5908963 C65.7752421,17.0572037 59.2289363,16.912109 57.9533408,16.912109 C57.3450901,16.912109 51.3401811,16.912109 51.3401811,11.7216757 L51.3401811,2.96982692 C51.3401811,1.44453382 51.5031374,1.4841051 50.998152,1.30603433 L49.4796143,0.733449852 C49.4796143,0.733449852 49.2217495,0.3671157 49.6801759,0.390498731 C50.9217476,0.453453046 52.718445,0.720259425 56.9451607,0.413881762 C56.9451607,0.413881762 57.3134539,0.504416062 57.0711086,0.771222441 L55.8074513,1.12916268 C54.8458302,1.56204854 54.9729719,1.23048915 54.9473048,2.22276906 L54.9777472,10.8511075 C54.9777472,12.966972 56.0617348,15.5870706 59.4706846,15.5870706 C64.1110586,15.5870706 64.1552299,11.5549967 64.1552299,10.6580476 L64.1629897,2.11065042 C64.2125332,1.30603433 64.1110586,1.53506812 63.4013333,1.23048915" id="Fill-11" fill="#DAAA00"></path>
            <polygon id="Fill-12" fill="#DAAA00" points="51.3413749 20.9184017 249.940906 20.9184017 249.940906 20.2408933 51.3413749 20.2408933"></polygon>
            <path d="M57.1248305,27.707275 C57.0167899,27.5591825 56.8926327,27.4296764 56.7547466,27.3193565 C56.6162636,27.2078374 56.4676332,27.1155044 56.3076615,27.0393597 C56.1482866,26.9638145 55.9817489,26.9068559 55.8062575,26.8678841 C55.6313631,26.829512 55.454081,26.8097263 55.275605,26.8097263 C54.9532739,26.8097263 54.6589976,26.8678841 54.3921791,26.9841997 C54.1265544,27.0999158 53.8985349,27.2605991 53.7099116,27.4644512 C53.5206913,27.6683033 53.3732546,27.9075297 53.2681986,28.1821304 C53.1637394,28.4561316 53.1112114,28.7523166 53.1112114,29.0688869 C53.1112114,29.3926519 53.1637394,29.6894365 53.2681986,29.9604399 C53.3732546,30.2314432 53.522482,30.464674 53.7146868,30.6601321 C53.9074886,30.8549907 54.1390895,31.0084793 54.4082956,31.1187993 C54.6780987,31.2291192 54.9771503,31.2842792 55.3072412,31.2842792 C55.4785542,31.2842792 55.6486734,31.2650931 55.8187926,31.2243227 C55.9889118,31.1841518 56.1518681,31.125994 56.3076615,31.0504489 C56.4634548,30.9743041 56.6108914,30.8837698 56.7487775,30.7782464 C56.8872605,30.672723 57.0132084,30.5534096 57.1248305,30.4197066 L57.1248305,32.9582644 C56.9493391,33.0104265 56.785189,33.06079 56.6311864,33.1087552 C56.4771837,33.1555212 56.3261656,33.1962916 56.178729,33.2298673 C56.0318893,33.2634429 55.8844527,33.2898238 55.7346284,33.3090098 C55.5859979,33.3287955 55.4290108,33.3383885 55.2654576,33.3383885 C54.6971998,33.3383885 54.1534153,33.2340642 53.6335072,33.0266148 C53.1130021,32.8191653 52.6414437,32.5235798 52.217041,32.1398583 C51.769359,31.7321541 51.439865,31.2680909 51.2297528,30.7494673 C51.0196407,30.2308436 50.9145846,29.6666531 50.9145846,29.0586943 C50.9145846,28.4987007 51.0166562,27.9620901 51.2196054,27.4488625 C51.4225546,26.9350354 51.7204124,26.4775674 52.1125819,26.0764585 C52.3125466,25.8726064 52.5310154,25.68854 52.7691823,25.5248588 C53.0073491,25.3617771 53.2592449,25.2220785 53.5236758,25.1075616 C53.7869129,24.9936443 54.0614912,24.9061078 54.3456201,24.8467509 C54.6291521,24.7867944 54.9126841,24.7568161 55.1962161,24.7568161 C55.5364545,24.7568161 55.8641577,24.7933896 56.178729,24.8653374 C56.4944941,24.9378847 56.8096623,25.0386116 57.1248305,25.1693168 L57.1248305,27.707275" id="Fill-13" fill="#002855"></path>
            <path d="M63.2043531,26.7569646 C62.889185,26.7569646 62.592521,26.815722 62.3161519,26.9338363 C62.0397828,27.0519506 61.7968407,27.2102357 61.5885193,27.4092912 C61.3807948,27.6077472 61.2154509,27.836781 61.0948752,28.0945939 C60.9742995,28.353606 60.9134147,28.6240097 60.9134147,28.9052057 C60.9134147,29.2571503 60.9742995,29.5815149 61.0948752,29.8788991 C61.2154509,30.1756837 61.3807948,30.4322975 61.5885193,30.6487404 C61.7968407,30.8651833 62.0397828,31.0342606 62.3161519,31.1553727 C62.592521,31.2770844 62.889185,31.33824 63.2043531,31.33824 C63.5189244,31.33824 63.8161853,31.2770844 64.0943451,31.1553727 C64.3731018,31.0342606 64.616044,30.8651833 64.8219777,30.6487404 C65.0285084,30.4322975 65.1926585,30.1756837 65.3126373,29.8788991 C65.4344068,29.5815149 65.4952916,29.2571503 65.4952916,28.9052057 C65.4952916,28.6240097 65.4344068,28.353606 65.3126373,28.0945939 C65.1926585,27.836781 65.0285084,27.6077472 64.8219777,27.4092912 C64.616044,27.2102357 64.3731018,27.0519506 64.0943451,26.9338363 C63.8161853,26.815722 63.5189244,26.7569646 63.2043531,26.7569646 M63.2043531,24.7040544 C63.5929412,24.7040544 63.9737694,24.7508205 64.3468378,24.8443526 C64.7199062,24.9378847 65.0726797,25.069789 65.4051583,25.2424637 C65.7382337,25.4145388 66.0450452,25.6255857 66.3249957,25.873206 C66.6055431,26.1214258 66.8460976,26.4008231 67.0472561,26.7125968 C67.2490115,27.023771 67.4065956,27.3625252 67.5206053,27.7282598 C67.6340181,28.0939944 67.6913214,28.483112 67.6913214,28.8944135 C67.6913214,29.5557336 67.5802963,30.1618937 67.357649,30.7122943 C67.1350018,31.2632944 66.824012,31.7363511 66.4246796,32.1320639 C66.0253472,32.5283763 65.551998,32.8365527 65.0034382,33.0583917 C64.4554753,33.2796311 63.8555813,33.3905507 63.2043531,33.3905507 C62.7692062,33.3905507 62.3573386,33.3407868 61.9669599,33.2406594 C61.5765811,33.1405321 61.2154509,32.9966365 60.8841661,32.8101718 C60.5534783,32.6243067 60.2544267,32.3970716 59.9864143,32.1320639 C59.7178051,31.8664567 59.4903826,31.5666742 59.302953,31.2327166 C59.1161204,30.8981594 58.9710714,30.5342235 58.8701937,30.1427076 C58.7687191,29.7499926 58.7173849,29.3344941 58.7173849,28.8944135 C58.7173849,28.483112 58.7746882,28.0939944 58.888101,27.7282598 C59.0021107,27.3625252 59.1602917,27.023771 59.3638378,26.7125968 C59.566787,26.4008231 59.8073415,26.1214258 60.0860982,25.873206 C60.364258,25.6255857 60.6704726,25.4145388 61.0029511,25.2424637 C61.3354297,25.069789 61.6882032,24.9378847 62.0612716,24.8443526 C62.4349369,24.7508205 62.8151682,24.7040544 63.2043531,24.7040544" id="Fill-14" fill="#002855"></path>
            <polyline id="Fill-15" fill="#002855" points="71.6088381 31.3274478 74.1415248 31.3274478 74.1415248 33.1219456 69.5017478 33.1219456 69.5017478 24.9732591 71.6088381 24.9732591 71.6088381 31.3274478"></polyline>
            <polyline id="Fill-16" fill="#002855" points="78.141415 31.3274478 80.6741018 31.3274478 80.6741018 33.1219456 76.0343247 33.1219456 76.0343247 24.9732591 78.141415 24.9732591 78.141415 31.3274478"></polyline>
            <polyline id="Fill-17" fill="#002855" points="84.6739919 26.7677568 84.6739919 28.1287691 87.053273 28.1287691 87.053273 29.9238664 84.6739919 29.9238664 84.6739919 31.3274478 87.18519 31.3274478 87.18519 33.1207465 82.5669016 33.1207465 82.5669016 24.9732591 87.18519 24.9732591 87.18519 26.7677568 84.6739919 26.7677568"></polyline>
            <path d="M97.5743988,28.5724471 C97.5684297,28.8680326 97.5552977,29.1546247 97.5379873,29.4328228 C97.5206769,29.7104213 97.4824747,29.9826238 97.4245745,30.248231 C97.3678681,30.5132387 97.2848977,30.774649 97.1780509,31.0288645 C97.0712041,31.2842792 96.9261551,31.5384947 96.7446947,31.7921106 C96.54473,32.0697092 96.3220828,32.3095351 96.0779468,32.5115885 C95.8320201,32.7142415 95.5675892,32.8809205 95.2834604,33.0110261 C95.0005253,33.1405321 94.7008767,33.237062 94.3863055,33.2982177 C94.0699435,33.3599728 93.7422402,33.3905507 93.4031956,33.3905507 C92.7656963,33.3905507 92.181322,33.2868259 91.6512664,33.079976 C91.1206139,32.871927 90.6639782,32.5793393 90.2825531,32.2010139 C89.900531,31.8220889 89.603867,31.370017 89.3913673,30.8418003 C89.1794644,30.3141832 89.0738114,29.730207 89.0738114,29.0892721 C89.0738114,28.427952 89.1806582,27.827188 89.3943518,27.2875796 C89.6080454,26.7479712 89.9088877,26.2869058 90.2950882,25.9049829 C90.6818855,25.5236596 91.1456841,25.2280741 91.6852902,25.0182264 C92.2242995,24.8089783 92.8212089,24.7040544 93.4766155,24.7040544 C94.310498,24.7040544 95.0405182,24.8935169 95.6672731,25.2718424 C96.2946249,25.6501678 96.7828969,26.2209536 97.1332827,26.9841997 L95.1324423,27.8235906 C95.0584255,27.6299311 94.9653076,27.4542586 94.8536856,27.2959735 C94.7402728,27.1370888 94.6113403,27.000388 94.4645006,26.8864707 C94.317064,26.7719538 94.1529139,26.6844173 93.9702596,26.6226621 C93.7882022,26.5615065 93.5906252,26.5309287 93.3775285,26.5309287 C93.0307241,26.5309287 92.7245096,26.6058743 92.4624663,26.7575642 C92.1998262,26.9086546 91.9801635,27.106511 91.8028814,27.3505339 C91.6261962,27.5957559 91.4930854,27.8709562 91.4041459,28.1767343 C91.3146095,28.483112 91.2698413,28.7906888 91.2698413,29.1006638 C91.2698413,29.4172341 91.3164002,29.7272091 91.4089212,30.0323877 C91.502039,30.3357675 91.6387313,30.6085695 91.818998,30.8495946 C91.9992646,31.0906197 92.2231056,31.2842792 92.4917149,31.430573 C92.7591303,31.5768668 93.0671356,31.6494142 93.41394,31.6494142 C93.6407656,31.6494142 93.8538622,31.6200355 94.0520362,31.5594795 C94.2496132,31.499523 94.4227169,31.4101878 94.5719443,31.2932726 C94.7205748,31.1751584 94.8423443,31.028265 94.936656,30.8519929 C95.0315646,30.6763204 95.0894648,30.4706696 95.1103566,30.2350406 L93.387676,30.2350406 L93.387676,28.5724471 L97.5743988,28.5724471" id="Fill-18" fill="#002855"></path>
            <polyline id="Fill-19" fill="#002855" points="101.466248 26.7677568 101.466248 28.1287691 103.846126 28.1287691 103.846126 29.9238664 101.466248 29.9238664 101.466248 31.3274478 103.977446 31.3274478 103.977446 33.1207465 99.359158 33.1207465 99.359158 24.9732591 103.977446 24.9732591 103.977446 26.7677568 101.466248 26.7677568"></polyline>
            <path d="M112.827226,28.5772437 C112.602191,28.5772437 112.390885,28.6192132 112.193308,28.7031523 C111.995731,28.7882905 111.82203,28.9004091 111.673997,29.0431056 C111.524769,29.1852025 111.407178,29.3482841 111.321223,29.5323505 C111.234671,29.7170165 111.192291,29.910676 111.192291,30.1103311 C111.192291,30.3627479 111.234671,30.5935804 111.321223,30.8064259 C111.407178,31.0186719 111.524769,31.2015392 111.673997,31.3568265 C111.82203,31.5103151 111.995731,31.6314272 112.193308,31.7183642 C112.390885,31.8047015 112.602191,31.8484697 112.827226,31.8484697 C113.052261,31.8484697 113.264163,31.8047015 113.462934,31.7183642 C113.662302,31.6314272 113.835406,31.5103151 113.982842,31.3568265 C114.130279,31.2015392 114.246676,31.0186719 114.333228,30.8064259 C114.419183,30.5935804 114.462758,30.3627479 114.462758,30.1103311 C114.462758,29.910676 114.419183,29.7170165 114.333228,29.5323505 C114.246676,29.3482841 114.130279,29.1852025 113.982842,29.0431056 C113.835406,28.9004091 113.662302,28.7882905 113.462934,28.7031523 C113.264163,28.6192132 113.052261,28.5772437 112.827226,28.5772437 M112.827226,27.1119071 C113.104789,27.1119071 113.376382,27.1448831 113.642604,27.2114348 C113.909423,27.2785861 114.160721,27.3727178 114.398888,27.4962282 C114.635861,27.6185394 114.856121,27.7684306 115.055489,27.9465014 C115.254856,28.123373 115.42796,28.3224286 115.571218,28.5454667 C115.714477,28.7679053 115.826696,29.00953 115.909069,29.2709402 C115.989652,29.531751 116.030242,29.8093495 116.030242,30.1031363 C116.030242,30.5755935 115.950853,31.0090789 115.792075,31.4011943 C115.633297,31.7939093 115.412441,32.1326635 115.126521,32.4156581 C114.841795,32.6974536 114.503944,32.9186931 114.111775,33.0769782 C113.720202,33.2346638 113.292815,33.3138063 112.827226,33.3138063 C112.516833,33.3138063 112.222556,33.2790316 111.9438,33.2064842 C111.664446,33.1345364 111.407178,33.03321 111.170802,32.8983079 C110.934426,32.7664036 110.720732,32.6051206 110.529124,32.4156581 C110.338113,32.2249965 110.175754,32.0109518 110.041449,31.772325 C109.908339,31.5342977 109.805073,31.2740866 109.732847,30.9952889 C109.659427,30.714093 109.623613,30.4173083 109.623613,30.1031363 C109.623613,29.8093495 109.664203,29.531751 109.746576,29.2709402 C109.827159,29.00953 109.939975,28.7679053 110.085024,28.5454667 C110.230073,28.3224286 110.40258,28.123373 110.600754,27.9465014 C110.799524,27.7684306 111.017993,27.6185394 111.255563,27.4962282 C111.493133,27.3727178 111.745029,27.2785861 112.011251,27.2114348 C112.278069,27.1448831 112.549066,27.1119071 112.827226,27.1119071" id="Fill-20" fill="#002855"></path>
            <polyline id="Fill-21" fill="#002855" points="118.534277 28.585038 118.534277 29.5569327 120.18891 29.5569327 120.18891 30.8382029 118.534277 30.8382029 118.534277 33.1219456 117.030065 33.1219456 117.030065 27.3043674 120.357238 27.3043674 120.357238 28.585038 118.534277 28.585038"></polyline>
            <path d="M129.220747,27.4908321 L129.200452,27.4908321 L128.32777,30.0869481 L130.082087,30.0869481 L129.220747,27.4908321 Z M127.74459,31.7069724 L127.187673,33.1207465 L124.94986,33.1207465 L128.070502,24.9732591 L130.371588,24.9732591 L133.429555,33.1207465 L131.180997,33.1207465 L130.650345,31.7069724 L127.74459,31.7069724 L127.74459,31.7069724 Z" id="Fill-22" fill="#002855"></path>
            <path d="M143.107845,28.5724471 C143.100682,28.8680326 143.088147,29.1546247 143.071433,29.4328228 C143.053526,29.7104213 143.015921,29.9826238 142.958021,30.248231 C142.900717,30.5132387 142.817747,30.774649 142.711497,31.0288645 C142.604053,31.2842792 142.459601,31.5384947 142.277544,31.7921106 C142.078176,32.0697092 141.855529,32.3095351 141.610796,32.5115885 C141.365466,32.7142415 141.101035,32.8809205 140.816906,33.0110261 C140.533971,33.1405321 140.234323,33.237062 139.919155,33.2982177 C139.602793,33.3599728 139.275686,33.3905507 138.936642,33.3905507 C138.298545,33.3905507 137.714171,33.2868259 137.184116,33.079976 C136.652866,32.871927 136.196827,32.5793393 135.815402,32.2010139 C135.433977,31.8220889 135.137313,31.370017 134.92541,30.8418003 C134.712314,30.3141832 134.607257,29.730207 134.607257,29.0892721 C134.607257,28.427952 134.714104,27.827188 134.927201,27.2875796 C135.141491,26.7479712 135.441737,26.2869058 135.828534,25.9049829 C136.215928,25.5236596 136.67913,25.2280741 137.218139,25.0182264 C137.758342,24.8089783 138.355252,24.7040544 139.010062,24.7040544 C139.843944,24.7040544 140.573367,24.8935169 141.200122,25.2718424 C141.827474,25.6501678 142.315746,26.2209536 142.666729,26.9841997 L140.665291,27.8235906 C140.591275,27.6299311 140.498157,27.4542586 140.386535,27.2959735 C140.274316,27.1370888 140.145383,27.000388 139.99735,26.8864707 C139.85051,26.7719538 139.68636,26.6844173 139.503706,26.6226621 C139.321051,26.5615065 139.124071,26.5309287 138.909781,26.5309287 C138.562976,26.5309287 138.259149,26.6058743 137.995315,26.7575642 C137.733272,26.9086546 137.51361,27.106511 137.336924,27.3505339 C137.159642,27.5957559 137.026531,27.8709562 136.937592,28.1767343 C136.848056,28.483112 136.803287,28.7906888 136.803287,29.1006638 C136.803287,29.4172341 136.849249,29.7272091 136.94177,30.0323877 C137.035485,30.3357675 137.17158,30.6085695 137.352444,30.8495946 C137.532711,31.0906197 137.757149,31.2842792 138.024564,31.430573 C138.292576,31.5768668 138.599985,31.6494142 138.946789,31.6494142 C139.174212,31.6494142 139.386711,31.6200355 139.584885,31.5594795 C139.782462,31.499523 139.956163,31.4101878 140.10539,31.2932726 C140.254021,31.1751584 140.37579,31.028265 140.470102,30.8519929 C140.565011,30.6763204 140.622911,30.4706696 140.643803,30.2350406 L138.921122,30.2350406 L138.921122,28.5724471 L143.107845,28.5724471" id="Fill-23" fill="#002855"></path>
            <path d="M147.430066,28.6258084 L147.634209,28.6258084 C147.806119,28.6258084 147.97982,28.6138171 148.154714,28.5910337 C148.330206,28.5682502 148.487193,28.5208846 148.628063,28.4489368 C148.76774,28.3757899 148.881153,28.2744634 148.968899,28.1425591 C149.056047,28.0112544 149.100219,27.8343828 149.100219,27.6119442 C149.100219,27.3907047 149.056047,27.212634 148.968899,27.078931 C148.881153,26.945228 148.76774,26.8421029 148.628063,26.7701551 C148.487193,26.6982073 148.330206,26.6508416 148.154714,26.6274586 C147.97982,26.6046752 147.806119,26.593883 147.634209,26.593883 L147.430066,26.593883 L147.430066,28.6258084 Z M152.068649,33.1219456 L149.441651,33.1219456 L147.45633,29.9874203 L147.430066,29.9874203 L147.430066,33.1219456 L145.322976,33.1219456 L145.322976,24.9732591 L148.475255,24.9732591 C148.874587,24.9732591 149.246462,25.0224234 149.591475,25.1213516 C149.936489,25.2202798 150.23554,25.3707706 150.487436,25.5758218 C150.739929,25.7790743 150.937506,26.0386859 151.080764,26.3528579 C151.224619,26.668229 151.296249,27.0435567 151.296249,27.4794403 C151.296249,27.7618354 151.258046,28.0292413 151.181045,28.2852556 C151.103447,28.5406702 150.989437,28.769704 150.839016,28.9735561 C150.688595,29.1780077 150.502956,29.3500828 150.282099,29.4909806 C150.06184,29.6318783 149.807556,29.7284083 149.52104,29.78117 L152.068649,33.1219456 L152.068649,33.1219456 Z" id="Fill-24" fill="#002855"></path>
            <polygon id="Fill-25" fill="#002855" points="153.899968 33.1207465 156.007058 33.1207465 156.007058 24.9732591 153.899968 24.9732591"></polygon>
            <path d="M164.233067,27.707275 C164.124429,27.5591825 164.000869,27.4296764 163.862386,27.3193565 C163.7245,27.2078374 163.575273,27.1155044 163.415301,27.0393597 C163.256523,26.9638145 163.089388,26.9068559 162.913897,26.8678841 C162.739003,26.829512 162.562317,26.8097263 162.383841,26.8097263 C162.06151,26.8097263 161.766637,26.8678841 161.500415,26.9841997 C161.234194,27.0999158 161.006174,27.2605991 160.818148,27.4644512 C160.628331,27.6683033 160.481491,27.9075297 160.376435,28.1821304 C160.271379,28.4561316 160.219448,28.7523166 160.219448,29.0688869 C160.219448,29.3926519 160.271379,29.6894365 160.376435,29.9604399 C160.481491,30.2314432 160.630121,30.464674 160.822326,30.6601321 C161.015725,30.8549907 161.246729,31.0084793 161.515935,31.1187993 C161.786932,31.2291192 162.085387,31.2842792 162.414881,31.2842792 C162.586194,31.2842792 162.757507,31.2650931 162.927029,31.2243227 C163.097148,31.1841518 163.259508,31.125994 163.415301,31.0504489 C163.571691,30.9743041 163.719128,30.8837698 163.857014,30.7782464 C163.9949,30.672723 164.120848,30.5534096 164.233067,30.4197066 L164.233067,32.9582644 C164.057575,33.0104265 163.893425,33.06079 163.738826,33.1087552 C163.584823,33.1555212 163.433805,33.1962916 163.286965,33.2298673 C163.139529,33.2634429 162.992092,33.2898238 162.842865,33.3090098 C162.694234,33.3287955 162.537247,33.3383885 162.373097,33.3383885 C161.806033,33.3383885 161.261652,33.2340642 160.741744,33.0266148 C160.221239,32.8191653 159.749083,32.5235798 159.325874,32.1398583 C158.877595,31.7321541 158.548101,31.2680909 158.337989,30.7494673 C158.127877,30.2308436 158.022821,29.6666531 158.022821,29.0586943 C158.022821,28.4987007 158.124296,27.9620901 158.327842,27.4488625 C158.530194,26.9350354 158.828649,26.4775674 159.220818,26.0764585 C159.420186,25.8726064 159.639252,25.68854 159.876822,25.5248588 C160.115586,25.3617771 160.366884,25.2220785 160.631315,25.1075616 C160.896343,24.9936443 161.169131,24.9061078 161.45326,24.8467509 C161.737388,24.7867944 162.020324,24.7568161 162.305049,24.7568161 C162.644691,24.7568161 162.971797,24.7933896 163.286965,24.8653374 C163.602134,24.9378847 163.917899,25.0386116 164.233067,25.1693168 L164.233067,27.707275" id="Fill-26" fill="#002855"></path>
            <path d="M173.786602,24.9732591 L173.786602,29.5539349 C173.786602,29.8177434 173.780633,30.0785542 173.768098,30.3351679 C173.75616,30.5923813 173.722136,30.8423998 173.666027,31.0876219 C173.609917,31.3316448 173.525156,31.5678734 173.41055,31.7951085 C173.297137,32.021744 173.140746,32.2333904 172.940782,32.4300477 C172.772453,32.599125 172.582039,32.7406223 172.368346,32.8551392 C172.154652,32.9696561 171.930214,33.0625887 171.695629,33.1345364 C171.460446,33.2070838 171.219892,33.2586464 170.972174,33.2910229 C170.726248,33.3216007 170.485096,33.3377889 170.250511,33.3377889 C170.012344,33.3377889 169.769999,33.3216007 169.522878,33.2910229 C169.275758,33.2586464 169.036397,33.2070838 168.802409,33.1345364 C168.570211,33.0625887 168.346967,32.9696561 168.133273,32.8551392 C167.920176,32.7406223 167.728569,32.599125 167.56024,32.4300477 C167.357888,32.2333904 167.19911,32.021744 167.085697,31.7951085 C166.97109,31.5678734 166.886926,31.3316448 166.830817,31.0876219 C166.774707,30.8423998 166.73949,30.5923813 166.728745,30.3351679 C166.715613,30.0785542 166.709644,29.8177434 166.709644,29.5539349 L166.709644,24.9732591 L168.816734,24.9732591 L168.816734,29.2637455 C168.816734,29.439418 168.820913,29.6180883 168.829866,29.7967587 C168.837626,29.9766281 168.857324,30.1475041 168.88717,30.3117849 C168.917015,30.474267 168.96238,30.6283552 169.023862,30.7704521 C169.085344,30.9131485 169.168911,31.0366589 169.275758,31.1421823 C169.383202,31.2477057 169.515119,31.3310452 169.672106,31.3910017 C169.830287,31.4503586 170.022492,31.4803369 170.250511,31.4803369 C170.474949,31.4803369 170.666557,31.4503586 170.825932,31.3910017 C170.985306,31.3310452 171.11782,31.2477057 171.222876,31.1421823 C171.327932,31.0366589 171.410903,30.9131485 171.471788,30.7704521 C171.533866,30.6283552 171.580425,30.474267 171.611464,30.3117849 C171.642504,30.1475041 171.662202,29.9766281 171.668768,29.7967587 C171.675931,29.6180883 171.680109,29.439418 171.680109,29.2637455 L171.680109,24.9732591 L173.786602,24.9732591" id="Fill-27" fill="#002855"></path>
            <polyline id="Fill-28" fill="#002855" points="178.498009 31.3274478 181.030099 31.3274478 181.030099 33.1219456 176.390321 33.1219456 176.390321 24.9732591 178.498009 24.9732591 178.498009 31.3274478"></polyline>
            <polyline id="Fill-29" fill="#002855" points="185.578549 33.1219456 183.472055 33.1219456 183.472055 26.7683564 181.727886 26.7683564 181.727886 24.9732591 187.323912 24.9732591 187.323912 26.7683564 185.578549 26.7683564 185.578549 33.1219456"></polyline>
            <path d="M196.297848,24.9732591 L196.297848,29.5539349 C196.297848,29.8177434 196.291879,30.0785542 196.279344,30.3351679 C196.267406,30.5923813 196.233382,30.8423998 196.177869,31.0876219 C196.121163,31.3316448 196.036402,31.5678734 195.922392,31.7951085 C195.808383,32.021744 195.652589,32.2333904 195.453221,32.4300477 C195.284296,32.599125 195.092688,32.7406223 194.880188,32.8551392 C194.665898,32.9696561 194.44146,33.0625887 194.206874,33.1345364 C193.971692,33.2070838 193.731735,33.2586464 193.484017,33.2910229 C193.23809,33.3216007 192.996342,33.3377889 192.762354,33.3377889 C192.524784,33.3377889 192.281245,33.3216007 192.034124,33.2910229 C191.787004,33.2586464 191.547643,33.2070838 191.314848,33.1345364 C191.082054,33.0625887 190.858809,32.9696561 190.645116,32.8551392 C190.431422,32.7406223 190.241008,32.599125 190.07268,32.4300477 C189.869134,32.2333904 189.710356,32.021744 189.596943,31.7951085 C189.482933,31.5678734 189.397575,31.3316448 189.342063,31.0876219 C189.285953,30.8423998 189.251332,30.5923813 189.239991,30.3351679 C189.226859,30.0785542 189.22089,29.8177434 189.22089,29.5539349 L189.22089,24.9732591 L191.32798,24.9732591 L191.32798,29.2637455 C191.32798,29.439418 191.332159,29.6180883 191.341112,29.7967587 C191.349469,29.9766281 191.369167,30.1475041 191.399012,30.3117849 C191.428858,30.474267 191.473626,30.6283552 191.535705,30.7704521 C191.597186,30.9131485 191.680754,31.0366589 191.787004,31.1421823 C191.894447,31.2477057 192.026961,31.3310452 192.183948,31.3910017 C192.341532,31.4503586 192.534334,31.4803369 192.762354,31.4803369 C192.986195,31.4803369 193.1784,31.4503586 193.337774,31.3910017 C193.497149,31.3310452 193.629066,31.2477057 193.734719,31.1421823 C193.839775,31.0366589 193.921552,30.9131485 193.984227,30.7704521 C194.045709,30.6283552 194.091671,30.474267 194.122113,30.3117849 C194.154346,30.1475041 194.173448,29.9766281 194.18061,29.7967587 C194.187773,29.6180883 194.191355,29.439418 194.191355,29.2637455 L194.191355,24.9732591 L196.297848,24.9732591" id="Fill-30" fill="#002855"></path>
            <path d="M201.009254,28.6258084 L201.213398,28.6258084 C201.385307,28.6258084 201.559008,28.6138171 201.733306,28.5910337 C201.908797,28.5682502 202.066978,28.5208846 202.207252,28.4489368 C202.347525,28.3757899 202.460938,28.2744634 202.549281,28.1425591 C202.63643,28.0112544 202.679407,27.8343828 202.679407,27.6119442 C202.679407,27.3907047 202.63643,27.212634 202.549281,27.078931 C202.460938,26.945228 202.347525,26.8421029 202.207252,26.7701551 C202.066978,26.6982073 201.908797,26.6508416 201.733306,26.6274586 C201.559008,26.6046752 201.385307,26.593883 201.213398,26.593883 L201.009254,26.593883 L201.009254,28.6258084 Z M205.648435,33.1219456 L203.020839,33.1219456 L201.035518,29.9874203 L201.009254,29.9874203 L201.009254,33.1219456 L198.902164,33.1219456 L198.902164,24.9732591 L202.054443,24.9732591 C202.453178,24.9732591 202.82565,25.0224234 203.17126,25.1213516 C203.516274,25.2202798 203.815326,25.3707706 204.067222,25.5758218 C204.31852,25.7790743 204.516694,26.0386859 204.66055,26.3528579 C204.803808,26.668229 204.875437,27.0435567 204.875437,27.4794403 C204.875437,27.7618354 204.837235,28.0292413 204.760233,28.2852556 C204.683232,28.5406702 204.569222,28.769704 204.418801,28.9735561 C204.26838,29.1780077 204.082741,29.3500828 203.861885,29.4909806 C203.641625,29.6318783 203.387342,29.7284083 203.100228,29.78117 L205.648435,33.1219456 L205.648435,33.1219456 Z" id="Fill-31" fill="#002855"></path>
            <path d="M211.385928,27.4908321 L211.36623,27.4908321 L210.492952,30.0869481 L212.247865,30.0869481 L211.385928,27.4908321 Z M209.910368,31.7069724 L209.354048,33.1207465 L207.115041,33.1207465 L210.236878,24.9732591 L212.537367,24.9732591 L215.594737,33.1207465 L213.346179,33.1207465 L212.816123,31.7069724 L209.910368,31.7069724 L209.910368,31.7069724 Z" id="Fill-32" fill="#002855"></path>
            <polyline id="Fill-33" fill="#002855" points="219.569557 31.3274478 222.101647 31.3274478 222.101647 33.1219456 217.462466 33.1219456 217.462466 24.9732591 219.569557 24.9732591 219.569557 31.3274478"></polyline>
            <path d="M53.6561897,41.7107127 L53.6406701,41.7107127 L53.0180935,43.5639678 L54.2716033,43.5639678 L53.6561897,41.7107127 Z M52.6020476,44.7211281 L52.2045059,45.7307954 L50.6059825,45.7307954 L52.8348423,39.9132172 L54.4775371,39.9132172 L56.6604349,45.7307954 L55.0547485,45.7307954 L54.6763079,44.7211281 L52.6020476,44.7211281 L52.6020476,44.7211281 Z" id="Fill-34" fill="#002855"></path>
            <polyline id="Fill-35" fill="#002855" points="57.3970212 39.9132172 58.901233 39.9132172 61.6619391 43.4698361 61.6780557 43.4698361 61.6780557 39.9132172 63.1810737 39.9132172 63.1810737 45.7307954 61.6780557 45.7307954 58.9203341 42.1657825 58.901233 42.1657825 58.901233 45.7307954 57.3970212 45.7307954 57.3970212 39.9132172"></polyline>
            <path d="M65.9793851,44.4501247 L66.3214142,44.4501247 C66.5458522,44.4501247 66.7595458,44.4183478 66.9607043,44.3559931 C67.1618627,44.2930387 67.3385479,44.1941105 67.489566,44.0616067 C67.641181,43.9291028 67.7617567,43.759426 67.8512931,43.5549744 C67.9414265,43.3499232 67.9861947,43.1059002 67.9861947,42.8217065 C67.9861947,42.5608958 67.9456048,42.3282646 67.8644252,42.1262112 C67.7832455,41.9247574 67.6698327,41.754481 67.5235899,41.616581 C67.3767501,41.4780815 67.2030495,41.3731577 67.001891,41.3018095 C66.8007325,41.2298617 66.5786822,41.1932882 66.3357401,41.1932882 L65.9793851,41.1932882 L65.9793851,44.4501247 Z M64.4757703,39.9132172 L66.6103184,39.9132172 C66.8777338,39.9132172 67.1367925,39.9467928 67.3868976,40.0145436 C67.6370027,40.0822945 67.8709912,40.1788244 68.0900569,40.3029344 C68.3091227,40.4270443 68.5078935,40.5775351 68.6881602,40.7532076 C68.8684268,40.9294797 69.0218326,41.1255374 69.1501681,41.3413808 C69.2767129,41.5578237 69.3763968,41.7898553 69.4480259,42.0404734 C69.519655,42.2892929 69.5542758,42.5501036 69.5542758,42.8217065 C69.5542758,43.0933094 69.519655,43.3541201 69.4480259,43.6041387 C69.3763968,43.8535577 69.276116,44.087388 69.1477805,44.3026318 C69.018848,44.5184751 68.8642485,44.7145329 68.6839818,44.8902054 C68.5043121,45.0658779 68.3055412,45.2157691 68.0882662,45.3404786 C67.8703942,45.4645885 67.6370027,45.5611185 67.3868976,45.6288693 C67.1367925,45.6966202 66.8777338,45.7307954 66.6103184,45.7307954 L64.4757703,45.7307954 L64.4757703,39.9132172 L64.4757703,39.9132172 Z" id="Fill-36" fill="#002855"></path>
            <polyline id="Fill-37" fill="#002855" points="76.8449277 39.3772061 76.8449277 40.738818 79.2248056 40.738818 79.2248056 42.5333158 76.8449277 42.5333158 76.8449277 43.9368972 79.3561257 43.9368972 79.3561257 45.7301958 74.7384343 45.7301958 74.7384343 37.5821088 79.3561257 37.5821088 79.3561257 39.3772061 76.8449277 39.3772061"></polyline>
            <polyline id="Fill-38" fill="#002855" points="81.7240655 37.5827084 83.8305589 37.5827084 87.6967414 42.5644931 87.7182301 42.5644931 87.7182301 37.5827084 89.8253204 37.5827084 89.8253204 45.7307954 87.7182301 45.7307954 83.8568229 40.738818 83.8305589 40.738818 83.8305589 45.7307954 81.7240655 45.7307954 81.7240655 37.5827084"></polyline>
            <polyline id="Fill-39" fill="#002855" points="95.6314586 42.5333158 97.6012597 37.5821088 99.8921982 37.5821088 96.4301234 45.7313949 94.7904132 45.7313949 91.3802695 37.5821088 93.677177 37.5821088 95.6314586 42.5333158"></polyline>
            <polygon id="Fill-40" fill="#002855" points="101.453713 45.7295962 103.560804 45.7295962 103.560804 37.5821088 101.453713 37.5821088"></polygon>
            <path d="M108.105075,41.2352578 L108.309815,41.2352578 C108.481725,41.2352578 108.654829,41.2232665 108.829723,41.200483 C109.005215,41.1771 109.162202,41.1297343 109.303072,41.0577866 C109.442152,40.9858388 109.556759,40.8839127 109.643908,40.7520085 C109.73225,40.6189051 109.775825,40.4432325 109.775825,40.220794 C109.775825,39.9995545 109.73225,39.8220833 109.643908,39.6883803 C109.556759,39.5546774 109.442152,39.4515522 109.303072,39.3790048 C109.162202,39.3070571 109.005215,39.2596914 108.829723,39.2375075 C108.654829,39.2141245 108.481725,39.2021332 108.309815,39.2021332 L108.105075,39.2021332 L108.105075,41.2352578 Z M112.743658,45.7307954 L110.11666,45.7307954 L108.130742,42.5962701 L108.105075,42.5962701 L108.105075,45.7307954 L105.997985,45.7307954 L105.997985,37.5827084 L109.150264,37.5827084 C109.549596,37.5827084 109.922068,37.6318727 110.266484,37.7302014 C110.612095,37.8291296 110.91055,37.9802199 111.162445,38.184072 C111.414938,38.3885236 111.611918,38.6475357 111.755773,38.9623072 C111.899032,39.2776784 111.971258,39.653006 111.971258,40.0894892 C111.971258,40.3706852 111.933055,40.6392903 111.856054,40.8941053 C111.779053,41.14952 111.665043,41.3785538 111.514025,41.5824058 C111.363604,41.7868575 111.177965,41.9595322 110.957108,42.1004299 C110.736849,42.2401285 110.482565,42.3378576 110.196049,42.3900198 L112.743658,45.7307954 L112.743658,45.7307954 Z" id="Fill-41" fill="#002855"></path>
            <path d="M118.238807,39.3658144 C117.923042,39.3658144 117.627571,39.4251713 117.350606,39.5426861 C117.07364,39.6613999 116.831294,39.8190855 116.622376,40.018141 C116.414652,40.2171966 116.249308,40.4456308 116.129329,40.7040433 C116.008156,40.9630553 115.947868,41.2328595 115.947868,41.514655 C115.947868,41.8654005 116.008156,42.1903646 116.129329,42.4883484 C116.249308,42.785133 116.414652,43.0411472 116.622376,43.2587893 C116.831294,43.4752322 117.07364,43.6425108 117.350606,43.7642225 C117.627571,43.8865337 117.923042,43.9470898 118.238807,43.9470898 C118.553378,43.9470898 118.850639,43.8865337 119.129396,43.7642225 C119.407555,43.6425108 119.649901,43.4752322 119.856431,43.2587893 C120.064156,43.0411472 120.227112,42.785133 120.348285,42.4883484 C120.46886,42.1903646 120.529148,41.8654005 120.529148,41.514655 C120.529148,41.2328595 120.46886,40.9630553 120.348285,40.7040433 C120.227112,40.4456308 120.064156,40.2171966 119.856431,40.018141 C119.649901,39.8190855 119.407555,39.6613999 119.129396,39.5426861 C118.850639,39.4251713 118.553378,39.3658144 118.238807,39.3658144 M118.238807,37.3129042 C118.627395,37.3129042 119.00882,37.3602698 119.381291,37.453802 C119.75436,37.5467345 120.107133,37.6798379 120.439612,37.8525126 C120.772687,38.0245877 121.078902,38.2344355 121.358852,38.4826553 C121.6394,38.7308752 121.880551,39.0096729 122.08171,39.3214466 C122.283465,39.6326208 122.441049,39.9707754 122.555059,40.3377091 C122.668472,40.7034437 122.725775,41.0913622 122.725775,41.5032633 C122.725775,42.1651829 122.614153,42.7707435 122.392103,43.321144 C122.168859,43.8721442 121.858466,44.3452009 121.45973,44.7409137 C121.059801,45.1378257 120.585855,45.4454025 120.037892,45.6672415 C119.489332,45.8884809 118.890035,46 118.238807,46 C117.804257,46 117.391792,45.9502361 117.000817,45.8489096 C116.611035,45.7493819 116.249308,45.6060859 115.91862,45.4190216 C115.587932,45.2331565 115.288283,45.0071205 115.020868,44.7409137 C114.752856,44.4753065 114.524836,44.175524 114.337407,43.8415664 C114.150574,43.5076087 114.006122,43.1436728 113.904647,42.7515574 C113.802576,42.3600415 113.751838,41.9433439 113.751838,41.5032633 C113.751838,41.0913622 113.809142,40.7034437 113.921958,40.3377091 C114.035967,39.9707754 114.194745,39.6326208 114.398291,39.3214466 C114.601241,39.0096729 114.841795,38.7308752 115.119955,38.4826553 C115.398712,38.2344355 115.704329,38.0245877 116.036808,37.8525126 C116.369883,37.6798379 116.722657,37.5467345 117.095725,37.453802 C117.468794,37.3602698 117.849622,37.3129042 118.238807,37.3129042" id="Fill-43" fill="#002855"></path>
            <polyline id="Fill-45" fill="#002855" points="124.966573 37.5827084 127.073663 37.5827084 130.940443 42.5644931 130.961335 42.5644931 130.961335 37.5827084 133.067828 37.5827084 133.067828 45.7307954 130.961335 45.7307954 127.099927 40.738818 127.073663 40.738818 127.073663 45.7307954 124.966573 45.7307954 124.966573 37.5827084"></polyline>
            <polyline id="Fill-46" fill="#002855" points="136.374706 37.5827084 138.45016 37.5827084 140.100018 41.9367487 141.838815 37.5827084 143.940533 37.5827084 145.164795 45.7307954 143.058301 45.7307954 142.46378 41.0392 142.442888 41.0392 140.493978 45.7307954 139.658305 45.7307954 137.792963 41.0392 137.772668 41.0392 137.094579 45.7307954 134.999427 45.7307954 136.374706 37.5827084"></polyline>
            <polyline id="Fill-47" fill="#002855" points="149.229748 39.3772061 149.229748 40.738818 151.610223 40.738818 151.610223 42.5333158 149.229748 42.5333158 149.229748 43.9368972 151.740349 43.9368972 151.740349 45.7301958 147.122658 45.7301958 147.122658 37.5821088 151.740349 37.5821088 151.740349 39.3772061 149.229748 39.3772061"></polyline>
            <polyline id="Fill-48" fill="#002855" points="154.108289 37.5827084 156.215976 37.5827084 160.082159 42.5644931 160.102454 42.5644931 160.102454 37.5827084 162.210141 37.5827084 162.210141 45.7307954 160.102454 45.7307954 156.241643 40.738818 156.215976 40.738818 156.215976 45.7307954 154.108289 45.7307954 154.108289 37.5827084"></polyline>
            <polyline id="Fill-49" fill="#002855" points="167.761399 45.7307954 165.654905 45.7307954 165.654905 39.3772061 163.910139 39.3772061 163.910139 37.5827084 169.506165 37.5827084 169.506165 39.3772061 167.761399 39.3772061 167.761399 45.7307954"></polyline>
            <path d="M174.234881,40.0996819 L174.21399,40.0996819 L173.341905,42.6957979 L175.096222,42.6957979 L174.234881,40.0996819 Z M172.758128,44.3158222 L172.201808,45.7307954 L169.963398,45.7307954 L173.084637,37.5827084 L175.385723,37.5827084 L178.44369,45.7307954 L176.194535,45.7307954 L175.66448,44.3158222 L172.758128,44.3158222 L172.758128,44.3158222 Z" id="Fill-50" fill="#002855"></path>
            <polyline id="Fill-51" fill="#002855" points="182.417316 43.9368972 184.950003 43.9368972 184.950003 45.7313949 180.310226 45.7313949 180.310226 37.5821088 182.417316 37.5821088 182.417316 43.9368972"></polyline>
            <path d="M195.933734,39.6775882 C195.73735,39.5163052 195.520075,39.3856001 195.282505,39.2872714 C195.043145,39.1883432 194.79483,39.1391789 194.535772,39.1391789 C194.437282,39.1391789 194.336404,39.154168 194.230751,39.1811484 C194.126292,39.2099275 194.028399,39.2524967 193.940056,39.3082562 C193.849923,39.3652149 193.775906,39.4359635 193.718603,39.5223009 C193.661299,39.6086382 193.632051,39.7075664 193.632051,39.819685 C193.632051,39.939598 193.663687,40.0421236 193.726959,40.1260627 C193.789635,40.2106014 193.869024,40.2825491 193.963335,40.3425056 C194.057647,40.4018626 194.159122,40.4528256 194.267759,40.4929964 C194.3758,40.5337668 194.476678,40.567942 194.568005,40.595522 L195.102836,40.7598028 C195.386964,40.8443415 195.650202,40.9444688 195.893741,41.0631826 C196.136683,41.1806974 196.349182,41.3275908 196.527061,41.5038628 C196.706134,41.6795354 196.846408,41.8881839 196.950867,42.129209 C197.052939,42.3696345 197.105467,42.6562266 197.105467,42.9865868 C197.105467,43.1868415 197.092335,43.3888949 197.066071,43.5903487 C197.039807,43.7930016 196.993845,43.9890593 196.929378,44.1791214 C196.864315,44.3691835 196.777763,44.5496525 196.669126,44.7205285 C196.560488,44.8908049 196.42499,45.0442936 196.263824,45.1815939 C195.945672,45.4531968 195.586332,45.6480554 195.184612,45.7673688 C194.783489,45.8878814 194.3758,45.9472383 193.963335,45.9472383 C193.451784,45.9472383 192.952171,45.8650979 192.466287,45.7014167 C191.979208,45.5377355 191.527348,45.3105004 191.111302,45.0185123 L192.013829,43.3079536 C192.147537,43.4254683 192.28602,43.5339896 192.429278,43.6359156 C192.572536,43.7378416 192.723555,43.8271768 192.879945,43.9051203 C193.03932,43.9818646 193.200485,44.0430202 193.369411,44.0867884 C193.537142,44.1305567 193.710843,44.1533401 193.889916,44.1533401 C194.012282,44.1533401 194.135245,44.1371519 194.257612,44.1059745 C194.379381,44.073598 194.48981,44.0244337 194.585315,43.957882 C194.682611,43.8901311 194.760806,43.8055925 194.8199,43.7018678 C194.879591,43.5975435 194.90884,43.4740331 194.90884,43.3301375 C194.90884,43.182045 194.863475,43.0567359 194.772148,42.9554095 C194.681417,42.8528839 194.569795,42.7653474 194.437878,42.6928 C194.307155,42.6214518 194.168672,42.5626944 194.021236,42.5165279 C193.873799,42.4715606 193.74427,42.4325889 193.632051,42.4008119 C193.299572,42.3054811 192.998133,42.2065529 192.72833,42.1052264 C192.459124,42.0027008 192.229314,41.8683983 192.037706,41.7017193 C191.846695,41.5350402 191.698661,41.3239934 191.594202,41.070977 C191.488549,40.817361 191.435424,40.493596 191.435424,40.0990823 C191.435424,39.6883803 191.504665,39.3136523 191.642552,38.9754977 C191.782228,38.6379426 191.976224,38.3501515 192.223941,38.1127238 C192.472853,37.8758956 192.767726,37.6918292 193.109158,37.5611241 C193.451187,37.4310185 193.824852,37.3662655 194.230751,37.3662655 C194.434297,37.3662655 194.647394,37.3818542 194.871832,37.4136311 C195.095673,37.4454081 195.31832,37.4903754 195.539176,37.5479336 C195.760033,37.6060914 195.975517,37.6768401 196.185032,37.7595801 C196.395144,37.84232 196.591528,37.934653 196.774182,38.036579 L195.933734,39.6775882" id="Fill-52" fill="#002855"></path>
            <path d="M204.899313,40.3161248 C204.791273,40.1680322 204.666519,40.0397254 204.529229,39.9288059 C204.391343,39.8172868 204.242116,39.7243542 204.082144,39.6482095 C203.923366,39.5726643 203.756232,39.5169048 203.58074,39.4773335 C203.406443,39.4383618 203.228564,39.4191757 203.049491,39.4191757 C202.727757,39.4191757 202.434077,39.4773335 202.167856,39.5930495 C201.901037,39.7093651 201.673018,39.8694489 201.484991,40.073301 C201.295174,40.2771531 201.148334,40.5163795 201.043278,40.7915797 C200.938222,41.0661805 200.885694,41.361766 200.885694,41.6777367 C200.885694,42.0015017 200.938222,42.2982863 201.043278,42.5692897 C201.148334,42.840293 201.296368,43.0741233 201.48917,43.2689819 C201.681971,43.4638405 201.913572,43.6167295 202.182778,43.7282486 C202.452582,43.8385685 202.75223,43.8937285 203.081724,43.8937285 C203.253037,43.8937285 203.423753,43.8739429 203.593872,43.833772 C203.763992,43.792402 203.926948,43.7348438 204.082144,43.6598982 C204.239131,43.584353 204.385971,43.4926196 204.52326,43.3876957 C204.661743,43.2821723 204.788288,43.1628589 204.899313,43.0285564 L204.899313,45.5671141 C204.723822,45.6198759 204.560269,45.6696397 204.405669,45.7176049 C204.251667,45.764371 204.101245,45.805741 203.953809,45.838717 C203.806969,45.8722927 203.658339,45.8992731 203.509708,45.9184592 C203.361078,45.9376453 203.204687,45.9472383 203.03994,45.9472383 C202.471683,45.9472383 201.928495,45.842914 201.40799,45.6360641 C200.888082,45.4286147 200.415926,45.1324296 199.992121,44.7487081 C199.543842,44.3410039 199.214945,43.8775403 199.004833,43.3583171 C198.79472,42.8396934 198.690261,42.2755029 198.690261,41.6669445 C198.690261,41.10815 198.791139,40.5709399 198.994088,40.0577123 C199.197037,39.5438852 199.494895,39.0870167 199.887662,38.6853083 C200.087029,38.4814562 200.306692,38.2973898 200.543665,38.1337086 C200.781832,37.9712265 201.033728,37.8315278 201.298159,37.7170109 C201.563186,37.6030936 201.835974,37.5155571 202.120103,37.4556007 C202.404232,37.3962437 202.687764,37.3662655 202.971296,37.3662655 C203.311534,37.3662655 203.639237,37.4022394 203.953809,37.4747867 C204.268977,37.5467345 204.585339,37.6474614 204.899313,37.777567 L204.899313,40.3161248" id="Fill-53" fill="#002855"></path>
            <polygon id="Fill-54" fill="#002855" points="207.277997 45.7295962 209.385685 45.7295962 209.385685 37.5821088 207.277997 37.5821088"></polygon>
            <polyline id="Fill-55" fill="#002855" points="213.929956 39.3772061 213.929956 40.738818 216.309237 40.738818 216.309237 42.5333158 213.929956 42.5333158 213.929956 43.9368972 216.441154 43.9368972 216.441154 45.7301958 211.822866 45.7301958 211.822866 37.5821088 216.441154 37.5821088 216.441154 39.3772061 213.929956 39.3772061"></polyline>
            <polyline id="Fill-56" fill="#002855" points="219.018609 37.5827084 221.1257 37.5827084 224.993076 42.5644931 225.012774 42.5644931 225.012774 37.5827084 227.121058 37.5827084 227.121058 45.7307954 225.012774 45.7307954 221.152561 40.738818 221.1257 40.738818 221.1257 45.7307954 219.018609 45.7307954 219.018609 37.5827084"></polyline>
            <path d="M235.136358,40.3161248 C235.028317,40.1680322 234.90416,40.0397254 234.766274,39.9288059 C234.628388,39.8172868 234.479161,39.7243542 234.319189,39.6482095 C234.161008,39.5726643 233.99268,39.5169048 233.817188,39.4773335 C233.642891,39.4383618 233.466205,39.4191757 233.287133,39.4191757 C232.965398,39.4191757 232.671122,39.4773335 232.404303,39.5930495 C232.138082,39.7093651 231.910062,39.8694489 231.722036,40.073301 C231.532219,40.2771531 231.385379,40.5163795 231.280323,40.7915797 C231.175267,41.0661805 231.122739,41.361766 231.122739,41.6777367 C231.122739,42.0015017 231.175267,42.2982863 231.280323,42.5692897 C231.385379,42.840293 231.533413,43.0741233 231.726214,43.2689819 C231.919613,43.4638405 232.150617,43.6167295 232.42042,43.7282486 C232.69082,43.8385685 232.989275,43.8937285 233.318769,43.8937285 C233.490679,43.8937285 233.660798,43.8739429 233.830917,43.833772 C234.000439,43.792402 234.163396,43.7348438 234.319189,43.6598982 C234.475579,43.584353 234.623016,43.4926196 234.760305,43.3876957 C234.898788,43.2821723 235.024736,43.1628589 235.136358,43.0285564 L235.136358,45.5671141 C234.96027,45.6198759 234.796717,45.6696397 234.642117,45.7176049 C234.488114,45.764371 234.337693,45.805741 234.190853,45.838717 C234.044014,45.8722927 233.895383,45.8992731 233.746156,45.9184592 C233.597525,45.9376453 233.441732,45.9472383 233.276985,45.9472383 C232.708727,45.9472383 232.164943,45.842914 231.645035,45.6360641 C231.125127,45.4286147 230.652971,45.1324296 230.229762,44.7487081 C229.780886,44.3410039 229.451392,43.8775403 229.24128,43.3583171 C229.031168,42.8396934 228.926709,42.2755029 228.926709,41.6669445 C228.926709,41.10815 229.027587,40.5709399 229.230536,40.0577123 C229.434082,39.5438852 229.732537,39.0870167 230.124109,38.6853083 C230.324074,38.4814562 230.54314,38.2973898 230.78071,38.1337086 C231.018877,37.9712265 231.270176,37.8315278 231.534606,37.7170109 C231.799634,37.6030936 232.073616,37.5155571 232.357745,37.4556007 C232.641277,37.3962437 232.924212,37.3662655 233.208937,37.3662655 C233.547982,37.3662655 233.875685,37.4022394 234.190853,37.4747867 C234.506619,37.5467345 234.821787,37.6474614 235.136358,37.777567 L235.136358,40.3161248" id="Fill-57" fill="#002855"></path>
            <polyline id="Fill-58" fill="#002855" points="239.61497 39.3772061 239.61497 40.738818 241.995444 40.738818 241.995444 42.5333158 239.61497 42.5333158 239.61497 43.9368972 242.125571 43.9368972 242.125571 45.7301958 237.507879 45.7301958 237.507879 37.5821088 242.125571 37.5821088 242.125571 39.3772061 239.61497 39.3772061"></polyline>
            <path d="M248.828267,39.6775882 C248.631884,39.5163052 248.414609,39.3856001 248.176442,39.2872714 C247.938275,39.1883432 247.690557,39.1391789 247.430902,39.1391789 C247.332412,39.1391789 247.230937,39.154168 247.125881,39.1811484 C247.020825,39.2099275 246.923529,39.2524967 246.834589,39.3082562 C246.74565,39.3652149 246.671036,39.4359635 246.613136,39.5223009 C246.555833,39.6086382 246.526584,39.7075664 246.526584,39.819685 C246.526584,39.939598 246.55822,40.0421236 246.622089,40.1260627 C246.684765,40.2106014 246.76296,40.2825491 246.858466,40.3425056 C246.95218,40.4018626 247.053655,40.4528256 247.162293,40.4929964 C247.27093,40.5337668 247.370614,40.567942 247.462538,40.595522 L247.997369,40.7598028 C248.281498,40.8443415 248.545332,40.9444688 248.788871,41.0631826 C249.03241,41.1806974 249.243716,41.3275908 249.421595,41.5038628 C249.600668,41.6795354 249.741538,41.8881839 249.844207,42.129209 C249.948069,42.3696345 250,42.6562266 250,42.9865868 C250,43.1868415 249.986271,43.3888949 249.960007,43.5903487 C249.93434,43.7930016 249.888378,43.9890593 249.823912,44.1791214 C249.758252,44.3691835 249.672297,44.5496525 249.563659,44.7205285 C249.455022,44.8908049 249.32012,45.0442936 249.159552,45.1815939 C248.840205,45.4531968 248.480865,45.6480554 248.079145,45.7673688 C247.678619,45.8878814 247.27093,45.9472383 246.858466,45.9472383 C246.346914,45.9472383 245.847301,45.8650979 245.36082,45.7014167 C244.874339,45.5377355 244.421881,45.3105004 244.005835,45.0185123 L244.908959,43.3079536 C245.04207,43.4254683 245.179956,43.5339896 245.323811,43.6359156 C245.46707,43.7378416 245.618088,43.8271768 245.775672,43.9051203 C245.933853,43.9818646 246.096212,44.0430202 246.264541,44.0867884 C246.432272,44.1305567 246.605376,44.1533401 246.784449,44.1533401 C246.906815,44.1533401 247.029779,44.1371519 247.152145,44.1059745 C247.274511,44.073598 247.384343,44.0244337 247.480445,43.957882 C247.577145,43.8901311 247.654146,43.8055925 247.714434,43.7018678 C247.773528,43.5975435 247.80397,43.4740331 247.80397,43.3301375 C247.80397,43.182045 247.758605,43.0567359 247.667278,42.9554095 C247.575951,42.8528839 247.464926,42.7653474 247.333009,42.6928 C247.202285,42.6214518 247.063206,42.5626944 246.916366,42.5165279 C246.769526,42.4715606 246.638803,42.4325889 246.526584,42.4008119 C246.194105,42.3054811 245.892666,42.2065529 245.62346,42.1052264 C245.35306,42.0027008 245.122653,41.8683983 244.932836,41.7017193 C244.740631,41.5350402 244.593194,41.3239934 244.487541,41.070977 C244.383679,40.817361 244.331151,40.493596 244.331151,40.0990823 C244.331151,39.6883803 244.399796,39.3136523 244.537682,38.9754977 C244.676762,38.6379426 244.870757,38.3501515 245.119071,38.1127238 C245.367983,37.8758956 245.662259,37.6918292 246.003691,37.5611241 C246.346317,37.4310185 246.719983,37.3662655 247.125881,37.3662655 C247.32883,37.3662655 247.542524,37.3818542 247.766962,37.4136311 C247.9914,37.4454081 248.21345,37.4903754 248.434307,37.5479336 C248.654566,37.6060914 248.870647,37.6768401 249.080163,37.7595801 C249.289678,37.84232 249.486061,37.934653 249.668715,38.036579 L248.828267,39.6775882" id="Fill-59" fill="#002855"></path>
        </g>
    </g>
</svg>