<?xml version="1.0" encoding="UTF-8"?>
<svg width="246px" height="27px" viewBox="0 0 246 27" version="1.1" xmlns="http://www.w3.org/2000/svg" xmlns:xlink="http://www.w3.org/1999/xlink">
    <!-- Generator: Sketch 41.2 (35397) - http://www.bohemiancoding.com/sketch -->
    <title>caeslogo</title>
    <desc>Created with Sketch.</desc>
    <defs>
        <linearGradient x1="0%" y1="50%" x2="100%" y2="87.0748069%" id="linearGradient-1">
            <stop stop-color="#DEC618" offset="0%"></stop>
            <stop stop-color="#DABA53" offset="100%"></stop>
        </linearGradient>
    </defs>
    <g id="Current" stroke="none" stroke-width="1" fill="none" fill-rule="evenodd">
        <g id="Event_full" transform="translate(-1034.000000, -62.000000)" fill="url(#linearGradient-1)">
            <path d="M1042.47745,62.6018663 C1041.66563,62.2659409 1040.85381,62.0699844 1039.97201,62.0699844 C1038.48834,62.0699844 1036.99067,62.7138414 1035.9549,63.777605 C1034.94712,64.8133748 1034.40124,66.1990669 1034.40124,67.6407465 C1034.40124,69.2083981 1034.93313,70.5800933 1036.09487,71.62986 C1037.18663,72.6236392 1038.58631,73.1835148 1040.05599,73.1835148 C1040.9098,73.1835148 1041.56765,72.9735614 1042.47745,72.6936236 L1042.47745,69.4043546 C1041.90358,70.0902022 1041.00778,70.5241058 1040.11198,70.5241058 C1038.40435,70.5241058 1037.25661,69.3203733 1037.25661,67.6547434 C1037.25661,66.0171073 1038.39036,64.7293935 1040.06998,64.7293935 C1041.00778,64.7293935 1041.91757,65.1353033 1042.47745,65.8911353 L1042.47745,62.6018663 Z M1050.23406,62 C1047.19673,62 1044.39736,64.2395023 1044.39736,67.4307932 C1044.39736,70.8460342 1046.84681,73.2534992 1050.23406,73.2534992 C1053.62131,73.2534992 1056.07076,70.8460342 1056.07076,67.4307932 C1056.07076,64.2395023 1053.27138,62 1050.23406,62 Z M1050.23406,64.659409 C1051.8717,64.659409 1053.2154,65.9891135 1053.2154,67.44479 C1053.2154,69.2643857 1051.8717,70.5940902 1050.23406,70.5940902 C1048.59642,70.5940902 1047.25272,69.2643857 1047.25272,67.44479 C1047.25272,65.9891135 1048.59642,64.659409 1050.23406,64.659409 Z M1060.84603,62.3499222 L1058.10264,62.3499222 L1058.10264,72.903577 L1064.1353,72.903577 L1064.1353,70.5800933 L1060.84603,70.5800933 L1060.84603,62.3499222 Z M1068.53266,62.3499222 L1065.78927,62.3499222 L1065.78927,72.903577 L1071.82193,72.903577 L1071.82193,70.5800933 L1068.53266,70.5800933 L1068.53266,62.3499222 Z M1079.48056,64.6734059 L1079.48056,62.3499222 L1073.47589,62.3499222 L1073.47589,72.903577 L1079.48056,72.903577 L1079.48056,70.5800933 L1076.21928,70.5800933 L1076.21928,68.7604977 L1079.3126,68.7604977 L1079.3126,66.437014 L1076.21928,66.437014 L1076.21928,64.6734059 L1079.48056,64.6734059 Z M1087.01322,67.0108865 L1087.01322,69.1664075 L1089.25272,69.1664075 C1089.14075,70.3841369 1088.23095,71 1087.04121,71 C1085.23561,71 1084.25583,69.3343701 1084.25583,67.6967341 C1084.25583,66.0870918 1085.19362,64.3654743 1086.99922,64.3654743 C1088.10498,64.3654743 1088.9028,65.037325 1089.28072,66.0451011 L1091.88414,64.9533437 C1090.97434,62.9797823 1089.29471,62 1087.12519,62 C1083.72395,62 1081.40047,64.2534992 1081.40047,67.6827372 C1081.40047,71 1083.70995,73.2534992 1087.02722,73.2534992 C1088.79082,73.2534992 1090.34448,72.6236392 1091.38025,71.1819596 C1092.31804,69.8662519 1092.43002,68.5505443 1092.45801,67.0108865 L1087.01322,67.0108865 Z M1100.48056,64.6734059 L1100.48056,62.3499222 L1094.47589,62.3499222 L1094.47589,72.903577 L1100.48056,72.903577 L1100.48056,70.5800933 L1097.21928,70.5800933 L1097.21928,68.7604977 L1100.3126,68.7604977 L1100.3126,66.437014 L1097.21928,66.437014 L1097.21928,64.6734059 L1100.48056,64.6734059 Z M1111.72939,65.6345257 C1109.70451,65.6345257 1107.83826,67.1275272 1107.83826,69.2550544 C1107.83826,71.5318818 1109.47123,73.1368585 1111.72939,73.1368585 C1113.98756,73.1368585 1115.62053,71.5318818 1115.62053,69.2550544 C1115.62053,67.1275272 1113.75428,65.6345257 1111.72939,65.6345257 Z M1111.72939,67.407465 C1112.82115,67.407465 1113.71695,68.2939347 1113.71695,69.2643857 C1113.71695,70.4774495 1112.82115,71.3639191 1111.72939,71.3639191 C1110.63764,71.3639191 1109.74184,70.4774495 1109.74184,69.2643857 C1109.74184,68.2939347 1110.63764,67.407465 1111.72939,67.407465 Z M1120.97667,67.4167963 L1120.97667,65.8678072 L1116.93624,65.8678072 L1116.93624,72.903577 L1118.76516,72.903577 L1118.76516,70.1415241 L1120.77138,70.1415241 L1120.77138,68.592535 L1118.76516,68.592535 L1118.76516,67.4167963 L1120.97667,67.4167963 Z M1134.7846,71.0699844 L1135.47045,72.903577 L1138.3958,72.903577 L1134.42068,62.3499222 L1131.42535,62.3499222 L1127.36625,72.903577 L1130.2776,72.903577 L1131.00544,71.0699844 L1134.7846,71.0699844 Z M1134.04277,68.970451 L1131.76128,68.970451 L1132.89502,65.6111975 L1132.92302,65.6111975 L1134.04277,68.970451 Z M1145.08865,67.0108865 L1145.08865,69.1664075 L1147.32815,69.1664075 C1147.21617,70.3841369 1146.30638,71 1145.11664,71 C1143.31104,71 1142.33126,69.3343701 1142.33126,67.6967341 C1142.33126,66.0870918 1143.26905,64.3654743 1145.07465,64.3654743 C1146.1804,64.3654743 1146.97823,65.037325 1147.35614,66.0451011 L1149.95956,64.9533437 C1149.04977,62.9797823 1147.37014,62 1145.20062,62 C1141.79938,62 1139.47589,64.2534992 1139.47589,67.6827372 C1139.47589,71 1141.78538,73.2534992 1145.10264,73.2534992 C1146.86625,73.2534992 1148.41991,72.6236392 1149.45568,71.1819596 C1150.39347,69.8662519 1150.50544,68.5505443 1150.53344,67.0108865 L1145.08865,67.0108865 Z M1158.01011,68.5785381 C1159.50778,68.3125972 1160.3196,67.0528771 1160.3196,65.5972006 C1160.3196,63.3437014 1158.73795,62.3499222 1156.65241,62.3499222 L1152.55132,62.3499222 L1152.55132,72.903577 L1155.29471,72.903577 L1155.29471,68.844479 L1155.32271,68.844479 L1157.91213,72.903577 L1161.32737,72.903577 L1158.01011,68.5785381 Z M1155.29471,64.4494557 L1155.56065,64.4494557 C1156.45645,64.4494557 1157.46423,64.6174184 1157.46423,65.7651633 C1157.46423,66.9129082 1156.45645,67.0808709 1155.56065,67.0808709 L1155.29471,67.0808709 L1155.29471,64.4494557 Z M1165.57076,62.3499222 L1162.82737,62.3499222 L1162.82737,72.903577 L1165.57076,72.903577 L1165.57076,62.3499222 Z M1175.66485,62.6018663 C1174.85303,62.2659409 1174.04121,62.0699844 1173.15941,62.0699844 C1171.67574,62.0699844 1170.17807,62.7138414 1169.1423,63.777605 C1168.13453,64.8133748 1167.58865,66.1990669 1167.58865,67.6407465 C1167.58865,69.2083981 1168.12053,70.5800933 1169.28227,71.62986 C1170.37403,72.6236392 1171.77372,73.1835148 1173.24339,73.1835148 C1174.0972,73.1835148 1174.75505,72.9735614 1175.66485,72.6936236 L1175.66485,69.4043546 C1175.09098,70.0902022 1174.19518,70.5241058 1173.29938,70.5241058 C1171.59176,70.5241058 1170.44401,69.3203733 1170.44401,67.6547434 C1170.44401,66.0171073 1171.57776,64.7293935 1173.25739,64.7293935 C1174.19518,64.7293935 1175.10498,65.1353033 1175.66485,65.8911353 L1175.66485,62.6018663 Z M1184.52722,62.3499222 L1184.52722,67.9066874 C1184.52722,69.2783826 1184.42924,70.7760498 1182.66563,70.7760498 C1180.90202,70.7760498 1180.80404,69.2783826 1180.80404,67.9066874 L1180.80404,62.3499222 L1178.06065,62.3499222 L1178.06065,68.2846034 C1178.06065,69.6423017 1178.11664,70.9860031 1179.16641,72.007776 C1180.04821,72.8755832 1181.4339,73.1835148 1182.66563,73.1835148 C1183.89736,73.1835148 1185.28305,72.8755832 1186.16485,72.007776 C1187.21462,70.9860031 1187.27061,69.6423017 1187.27061,68.2846034 L1187.27061,62.3499222 L1184.52722,62.3499222 Z M1192.50778,62.3499222 L1189.76439,62.3499222 L1189.76439,72.903577 L1195.79704,72.903577 L1195.79704,70.5800933 L1192.50778,70.5800933 L1192.50778,62.3499222 Z M1200.88025,64.6734059 L1203.14774,64.6734059 L1203.14774,62.3499222 L1195.86936,62.3499222 L1195.86936,64.6734059 L1198.13686,64.6734059 L1198.13686,72.903577 L1200.88025,72.903577 L1200.88025,64.6734059 Z M1211.31026,62.3499222 L1211.31026,67.9066874 C1211.31026,69.2783826 1211.21229,70.7760498 1209.44868,70.7760498 C1207.68507,70.7760498 1207.58709,69.2783826 1207.58709,67.9066874 L1207.58709,62.3499222 L1204.8437,62.3499222 L1204.8437,68.2846034 C1204.8437,69.6423017 1204.89969,70.9860031 1205.94946,72.007776 C1206.83126,72.8755832 1208.21695,73.1835148 1209.44868,73.1835148 C1210.6804,73.1835148 1212.0661,72.8755832 1212.9479,72.007776 C1213.99767,70.9860031 1214.05365,69.6423017 1214.05365,68.2846034 L1214.05365,62.3499222 L1211.31026,62.3499222 Z M1222.00622,68.5785381 C1223.50389,68.3125972 1224.31571,67.0528771 1224.31571,65.5972006 C1224.31571,63.3437014 1222.73406,62.3499222 1220.64852,62.3499222 L1216.54743,62.3499222 L1216.54743,72.903577 L1219.29082,72.903577 L1219.29082,68.844479 L1219.31882,68.844479 L1221.90824,72.903577 L1225.32348,72.903577 L1222.00622,68.5785381 Z M1219.29082,64.4494557 L1219.55676,64.4494557 C1220.45257,64.4494557 1221.46034,64.6174184 1221.46034,65.7651633 C1221.46034,66.9129082 1220.45257,67.0808709 1219.55676,67.0808709 L1219.29082,67.0808709 L1219.29082,64.4494557 Z M1233.29005,71.0699844 L1233.97589,72.903577 L1236.90124,72.903577 L1232.92613,62.3499222 L1229.93079,62.3499222 L1225.87169,72.903577 L1228.78305,72.903577 L1229.51089,71.0699844 L1233.29005,71.0699844 Z M1232.54821,68.970451 L1230.26672,68.970451 L1231.40047,65.6111975 L1231.42846,65.6111975 L1232.54821,68.970451 Z M1241.25661,62.3499222 L1238.51322,62.3499222 L1238.51322,72.903577 L1244.54588,72.903577 L1244.54588,70.5800933 L1241.25661,70.5800933 L1241.25661,62.3499222 Z M1038.94557,87.4276827 L1039.4028,88.6500778 L1041.35303,88.6500778 L1038.70295,81.6143079 L1036.70607,81.6143079 L1034,88.6500778 L1035.9409,88.6500778 L1036.42613,87.4276827 L1038.94557,87.4276827 Z M1038.45101,86.0279938 L1036.93002,86.0279938 L1037.68585,83.7884914 L1037.70451,83.7884914 L1038.45101,86.0279938 Z M1042.3888,88.6500778 L1044.21773,88.6500778 L1044.21773,84.3390358 L1044.23639,84.3390358 L1047.58631,88.6500778 L1049.41524,88.6500778 L1049.41524,81.6143079 L1047.58631,81.6143079 L1047.58631,85.9160187 L1047.56765,85.9160187 L1044.21773,81.6143079 L1042.3888,81.6143079 L1042.3888,88.6500778 Z M1051.07621,88.6500778 L1053.6703,88.6500778 C1055.62053,88.6500778 1057.24417,87.1104199 1057.24417,85.1321928 C1057.24417,83.1539658 1055.62986,81.6143079 1053.6703,81.6143079 L1051.07621,81.6143079 L1051.07621,88.6500778 Z M1052.90513,83.163297 L1053.33437,83.163297 C1054.51011,83.163297 1055.34059,83.8724728 1055.34059,85.1321928 C1055.34059,86.503888 1054.40747,87.1010886 1053.31571,87.1010886 L1052.90513,87.1010886 L1052.90513,83.163297 Z M1070.42224,80.4199067 L1070.42224,78.096423 L1064.41757,78.096423 L1064.41757,88.6500778 L1070.42224,88.6500778 L1070.42224,86.3265941 L1067.16096,86.3265941 L1067.16096,84.5069984 L1070.25428,84.5069984 L1070.25428,82.1835148 L1067.16096,82.1835148 L1067.16096,80.4199067 L1070.42224,80.4199067 Z M1072.87403,88.6500778 L1075.61742,88.6500778 L1075.61742,82.1835148 L1075.64541,82.1835148 L1080.6703,88.6500778 L1083.41369,88.6500778 L1083.41369,78.096423 L1080.6703,78.096423 L1080.6703,84.5489891 L1080.6423,84.5489891 L1075.61742,78.096423 L1072.87403,78.096423 L1072.87403,88.6500778 Z M1087.83904,78.096423 L1084.8577,78.096423 L1089.29471,88.6500778 L1091.42224,88.6500778 L1095.92924,78.096423 L1092.9479,78.096423 L1090.38647,84.5069984 L1087.83904,78.096423 Z M1100.11664,78.096423 L1097.37325,78.096423 L1097.37325,88.6500778 L1100.11664,88.6500778 L1100.11664,78.096423 Z M1108.12519,84.3250389 C1109.62286,84.059098 1110.43468,82.7993779 1110.43468,81.3437014 C1110.43468,79.0902022 1108.85303,78.096423 1106.7675,78.096423 L1102.66641,78.096423 L1102.66641,88.6500778 L1105.4098,88.6500778 L1105.4098,84.5909798 L1105.43779,84.5909798 L1108.02722,88.6500778 L1111.44246,88.6500778 L1108.12519,84.3250389 Z M1105.4098,80.1959565 L1105.67574,80.1959565 C1106.57154,80.1959565 1107.57932,80.3639191 1107.57932,81.5116641 C1107.57932,82.659409 1106.57154,82.8273717 1105.67574,82.8273717 L1105.4098,82.8273717 L1105.4098,80.1959565 Z M1118.24728,77.7465008 C1115.20995,77.7465008 1112.41058,79.9860031 1112.41058,83.1772939 C1112.41058,86.592535 1114.86003,89 1118.24728,89 C1121.63453,89 1124.08398,86.592535 1124.08398,83.1772939 C1124.08398,79.9860031 1121.2846,77.7465008 1118.24728,77.7465008 Z M1118.24728,80.4059098 C1119.88491,80.4059098 1121.22862,81.7356143 1121.22862,83.1912908 C1121.22862,85.0108865 1119.88491,86.340591 1118.24728,86.340591 C1116.60964,86.340591 1115.26594,85.0108865 1115.26594,83.1912908 C1115.26594,81.7356143 1116.60964,80.4059098 1118.24728,80.4059098 Z M1126.11586,88.6500778 L1128.85925,88.6500778 L1128.85925,82.1835148 L1128.88725,82.1835148 L1133.91213,88.6500778 L1136.65552,88.6500778 L1136.65552,78.096423 L1133.91213,78.096423 L1133.91213,84.5489891 L1133.88414,84.5489891 L1128.85925,78.096423 L1126.11586,78.096423 L1126.11586,88.6500778 Z M1138.57543,88.6500778 L1141.30482,88.6500778 L1142.18663,82.5754277 L1142.21462,82.5754277 L1144.63608,88.6500778 L1145.72784,88.6500778 L1148.26128,82.5754277 L1148.28927,82.5754277 L1149.0591,88.6500778 L1151.80249,88.6500778 L1150.20684,78.096423 L1147.47745,78.096423 L1145.20995,83.7371695 L1143.06843,78.096423 L1140.36703,78.096423 L1138.57543,88.6500778 Z M1159.72706,80.4199067 L1159.72706,78.096423 L1153.72239,78.096423 L1153.72239,88.6500778 L1159.72706,88.6500778 L1159.72706,86.3265941 L1156.46579,86.3265941 L1156.46579,84.5069984 L1159.5591,84.5069984 L1159.5591,82.1835148 L1156.46579,82.1835148 L1156.46579,80.4199067 L1159.72706,80.4199067 Z M1162.17885,88.6500778 L1164.92224,88.6500778 L1164.92224,82.1835148 L1164.95023,82.1835148 L1169.97512,88.6500778 L1172.71851,88.6500778 L1172.71851,78.096423 L1169.97512,78.096423 L1169.97512,84.5489891 L1169.94712,84.5489891 L1164.92224,78.096423 L1162.17885,78.096423 L1162.17885,88.6500778 Z M1179.46734,80.4199067 L1181.73484,80.4199067 L1181.73484,78.096423 L1174.45645,78.096423 L1174.45645,80.4199067 L1176.72395,80.4199067 L1176.72395,88.6500778 L1179.46734,88.6500778 L1179.46734,80.4199067 Z M1189.11353,86.8164852 L1189.79938,88.6500778 L1192.72473,88.6500778 L1188.74961,78.096423 L1185.75428,78.096423 L1181.69518,88.6500778 L1184.60653,88.6500778 L1185.33437,86.8164852 L1189.11353,86.8164852 Z M1188.3717,84.7169518 L1186.0902,84.7169518 L1187.22395,81.3576983 L1187.25194,81.3576983 L1188.3717,84.7169518 Z M1197.08009,78.096423 L1194.3367,78.096423 L1194.3367,88.6500778 L1200.36936,88.6500778 L1200.36936,86.3265941 L1197.08009,86.3265941 L1197.08009,78.096423 Z M1214.4689,78.6842924 C1213.5311,78.1524106 1212.22939,77.8164852 1211.16563,77.8164852 C1209.0521,77.8164852 1207.52644,79.2161742 1207.52644,81.3576983 C1207.52644,83.4012442 1208.66019,83.8491446 1210.3818,84.3390358 C1210.96967,84.5069984 1212.04743,84.7729393 1212.04743,85.5427683 C1212.04743,86.2846034 1211.36159,86.6065319 1210.71773,86.6065319 C1209.77994,86.6065319 1208.96812,86.1166407 1208.28227,85.5147745 L1207.10653,87.726283 C1208.18429,88.4821151 1209.486,88.9300156 1210.81571,88.9300156 C1211.87947,88.9300156 1212.98523,88.6360809 1213.81104,87.9362364 C1214.65086,87.222395 1214.9028,86.1446345 1214.9028,85.0948678 C1214.9028,83.3872473 1213.76905,82.6454121 1212.29938,82.2115086 L1211.59953,82.0015552 C1211.12364,81.8475894 1210.3818,81.6096423 1210.3818,80.9937792 C1210.3818,80.4059098 1211.05365,80.1119751 1211.55754,80.1119751 C1212.22939,80.1119751 1212.87325,80.3919129 1213.37714,80.8118196 L1214.4689,78.6842924 Z M1224.507,78.348367 C1223.69518,78.0124417 1222.88336,77.8164852 1222.00156,77.8164852 C1220.51788,77.8164852 1219.02022,78.4603421 1217.98445,79.5241058 C1216.97667,80.5598756 1216.43079,81.9455677 1216.43079,83.3872473 C1216.43079,84.9548989 1216.96267,86.3265941 1218.12442,87.3763608 C1219.21617,88.37014 1220.61586,88.9300156 1222.08554,88.9300156 C1222.93935,88.9300156 1223.5972,88.7200622 1224.507,88.4401244 L1224.507,85.1508554 C1223.93313,85.836703 1223.03733,86.2706065 1222.14152,86.2706065 C1220.4339,86.2706065 1219.28616,85.066874 1219.28616,83.4012442 C1219.28616,81.7636081 1220.41991,80.4758942 1222.09953,80.4758942 C1223.03733,80.4758942 1223.94712,80.881804 1224.507,81.6376361 L1224.507,78.348367 Z M1229.70218,78.096423 L1226.95879,78.096423 L1226.95879,88.6500778 L1229.70218,88.6500778 L1229.70218,78.096423 Z M1238.25661,80.4199067 L1238.25661,78.096423 L1232.25194,78.096423 L1232.25194,88.6500778 L1238.25661,88.6500778 L1238.25661,86.3265941 L1234.99533,86.3265941 L1234.99533,84.5069984 L1238.08865,84.5069984 L1238.08865,82.1835148 L1234.99533,82.1835148 L1234.99533,80.4199067 L1238.25661,80.4199067 Z M1240.7084,88.6500778 L1243.45179,88.6500778 L1243.45179,82.1835148 L1243.47978,82.1835148 L1248.50467,88.6500778 L1251.24806,88.6500778 L1251.24806,78.096423 L1248.50467,78.096423 L1248.50467,84.5489891 L1248.47667,84.5489891 L1243.45179,78.096423 L1240.7084,78.096423 L1240.7084,88.6500778 Z M1261.34215,78.348367 C1260.53033,78.0124417 1259.71851,77.8164852 1258.8367,77.8164852 C1257.35303,77.8164852 1255.85537,78.4603421 1254.8196,79.5241058 C1253.81182,80.5598756 1253.26594,81.9455677 1253.26594,83.3872473 C1253.26594,84.9548989 1253.79782,86.3265941 1254.95956,87.3763608 C1256.05132,88.37014 1257.45101,88.9300156 1258.92068,88.9300156 C1259.77449,88.9300156 1260.43235,88.7200622 1261.34215,88.4401244 L1261.34215,85.1508554 C1260.76827,85.836703 1259.87247,86.2706065 1258.97667,86.2706065 C1257.26905,86.2706065 1256.12131,85.066874 1256.12131,83.4012442 C1256.12131,81.7636081 1257.25505,80.4758942 1258.93468,80.4758942 C1259.87247,80.4758942 1260.78227,80.881804 1261.34215,81.6376361 L1261.34215,78.348367 Z M1269.7986,80.4199067 L1269.7986,78.096423 L1263.79393,78.096423 L1263.79393,88.6500778 L1269.7986,88.6500778 L1269.7986,86.3265941 L1266.53733,86.3265941 L1266.53733,84.5069984 L1269.63064,84.5069984 L1269.63064,82.1835148 L1266.53733,82.1835148 L1266.53733,80.4199067 L1269.7986,80.4199067 Z M1279.13686,78.6842924 C1278.19907,78.1524106 1276.89736,77.8164852 1275.83359,77.8164852 C1273.72006,77.8164852 1272.1944,79.2161742 1272.1944,81.3576983 C1272.1944,83.4012442 1273.32815,83.8491446 1275.04977,84.3390358 C1275.63764,84.5069984 1276.7154,84.7729393 1276.7154,85.5427683 C1276.7154,86.2846034 1276.02955,86.6065319 1275.38569,86.6065319 C1274.4479,86.6065319 1273.63608,86.1166407 1272.95023,85.5147745 L1271.77449,87.726283 C1272.85226,88.4821151 1274.15397,88.9300156 1275.48367,88.9300156 C1276.54743,88.9300156 1277.65319,88.6360809 1278.479,87.9362364 C1279.31882,87.222395 1279.57076,86.1446345 1279.57076,85.0948678 C1279.57076,83.3872473 1278.43701,82.6454121 1276.96734,82.2115086 L1276.2675,82.0015552 C1275.7916,81.8475894 1275.04977,81.6096423 1275.04977,80.9937792 C1275.04977,80.4059098 1275.72162,80.1119751 1276.22551,80.1119751 C1276.89736,80.1119751 1277.54121,80.3919129 1278.0451,80.8118196 L1279.13686,78.6842924 Z" id="caeslogo"></path>
        </g>
    </g>
</svg>