<?xml version="1.0" encoding="UTF-8"?>
<svg width="28px" height="19px" viewBox="0 0 28 19" version="1.1" xmlns="http://www.w3.org/2000/svg" xmlns:xlink="http://www.w3.org/1999/xlink">
    <!-- Generator: Sketch 43.1 (39012) - http://www.bohemiancoding.com/sketch -->
    <title>mail</title>
    <desc>Created with Sketch.</desc>
    <defs></defs>
    <g id="Current" stroke="none" stroke-width="1" fill="none" fill-rule="evenodd">
        <g id="Event_full" transform="translate(-886.000000, -749.000000)" fill-rule="nonzero" fill="#818181">
            <g id="mail" transform="translate(886.000000, 749.000000)">
                <path d="M27.6989247,1.05555556 L27.6989247,0.965079365 C27.6989247,0.934920635 27.6688172,0.904761905 27.6688172,0.844444444 C27.6688172,0.814285714 27.6387097,0.753968254 27.6387097,0.723809524 C27.6387097,0.693650794 27.6086022,0.663492063 27.5784946,0.633333333 C27.5483871,0.603174603 27.5483871,0.542857143 27.5182796,0.512698413 C27.488172,0.452380952 27.488172,0.452380952 27.4580645,0.422222222 C27.427957,0.392063492 27.3978495,0.361904762 27.3677419,0.331746032 C27.3376344,0.301587302 27.3075269,0.271428571 27.2774194,0.271428571 C27.2473118,0.241269841 27.2172043,0.211111111 27.1870968,0.211111111 C27.1569892,0.180952381 27.1268817,0.180952381 27.0967742,0.150793651 C27.0666667,0.120634921 27.0365591,0.120634921 27.0064516,0.0904761905 C26.9763441,0.0904761905 26.916129,0.0603174603 26.8860215,0.0603174603 C26.855914,0.0603174603 26.8258065,0.0301587302 26.7655914,0.0301587302 L26.6451613,0.0301587302 L26.5548387,0.0301587302 L1.20430108,0.0301587302 L1.11397849,0.0301587302 L0.993548387,0.0301587302 C0.96344086,0.0301587302 0.933333333,0.0603174603 0.87311828,0.0603174603 C0.843010753,0.0603174603 0.782795699,0.0904761905 0.752688172,0.0904761905 C0.722580645,0.0904761905 0.692473118,0.120634921 0.662365591,0.150793651 C0.632258065,0.180952381 0.602150538,0.180952381 0.572043011,0.211111111 C0.541935484,0.241269841 0.511827957,0.241269841 0.48172043,0.271428571 C0.451612903,0.301587302 0.421505376,0.331746032 0.391397849,0.331746032 C0.361290323,0.361904762 0.331182796,0.392063492 0.301075269,0.422222222 C0.270967742,0.452380952 0.270967742,0.452380952 0.240860215,0.482539683 C0.210752688,0.542857143 0.180645161,0.603174603 0.180645161,0.633333333 C0.150537634,0.663492063 0.150537634,0.693650794 0.120430108,0.723809524 C0.0903225806,0.753968254 0.0903225806,0.784126984 0.0903225806,0.844444444 C0.0903225806,0.874603175 0.0602150538,0.904761905 0.0602150538,0.965079365 L0.0602150538,1.05555556 L0.0602150538,1.17619048 L0.0602150538,17.7936508 C0.0602150538,18.4571429 0.602150538,19 1.26451613,19 L26.5548387,19 C27.2172043,19 27.7591398,18.4571429 27.7591398,17.7936508 L27.6989247,1.17619048 L27.6989247,1.05555556 Z M22.8516129,2.41269841 L13.8494624,9.10793651 L4.84731183,2.41269841 L22.8516129,2.41269841 Z M2.40860215,14.2047619 L25.2903226,14.2047619 L25.2903226,16.5873016 L2.40860215,16.5873016 L2.40860215,14.2047619 Z M2.40860215,14.2047619 L2.40860215,3.61904762 L13.1268817,11.8385434 C13.3376344,11.9942157 13.5784946,12.087619 13.8494624,12.087619 C14.1204301,12.087619 14.3612903,11.9942157 14.572043,11.8385434 L25.2903226,3.61904762 L25.2903226,14.2047619 L2.40860215,14.2047619 Z" id="XMLID_1299_"></path>
            </g>
        </g>
    </g>
</svg>