<?xml version="1.0" encoding="UTF-8"?>
<svg width="24px" height="24px" viewBox="0 0 24 24" version="1.1" xmlns="http://www.w3.org/2000/svg" xmlns:xlink="http://www.w3.org/1999/xlink">
    <title>other_icon</title>
    <defs>
        <path d="M12,1 C5.92529435,1 1,5.92706855 1,12 C1,18.0764798 5.92529435,23 12,23 C18.0747056,23 23,18.0764798 23,12 C23,5.92706855 18.0747056,1 12,1 Z M12,5.87903226 C13.0288548,5.87903226 13.8629032,6.71308065 13.8629032,7.74193548 C13.8629032,8.77079032 13.0288548,9.60483871 12,9.60483871 C10.9711452,9.60483871 10.1370968,8.77079032 10.1370968,7.74193548 C10.1370968,6.71308065 10.9711452,5.87903226 12,5.87903226 Z M14.483871,17.1451613 C14.483871,17.4391008 14.2455524,17.6774194 13.9516129,17.6774194 L10.0483871,17.6774194 C9.75444758,17.6774194 9.51612903,17.4391008 9.51612903,17.1451613 L9.51612903,16.0806452 C9.51612903,15.7867056 9.75444758,15.5483871 10.0483871,15.5483871 L10.5806452,15.5483871 L10.5806452,12.7096774 L10.0483871,12.7096774 C9.75444758,12.7096774 9.51612903,12.4713589 9.51612903,12.1774194 L9.51612903,11.1129032 C9.51612903,10.8189637 9.75444758,10.5806452 10.0483871,10.5806452 L12.8870968,10.5806452 C13.1810363,10.5806452 13.4193548,10.8189637 13.4193548,11.1129032 L13.4193548,15.5483871 L13.9516129,15.5483871 C14.2455524,15.5483871 14.483871,15.7867056 14.483871,16.0806452 L14.483871,17.1451613 Z" id="path-1"></path>
    </defs>
    <g id="other_icon" stroke="none" stroke-width="1" fill="none" fill-rule="evenodd">
        <mask id="mask-2" fill="white">
            <use xlink:href="#path-1"></use>
        </mask>
        <use id="info-circle" fill-opacity="0.9" fill="#818181" fill-rule="nonzero" xlink:href="#path-1"></use>
    </g>
</svg>