<?xml version="1.0" encoding="UTF-8"?>
<svg width="185px" height="31px" viewBox="0 0 185 31" version="1.1" xmlns="http://www.w3.org/2000/svg" xmlns:xlink="http://www.w3.org/1999/xlink">
    <!-- Generator: Sketch 41.2 (35397) - http://www.bohemiancoding.com/sketch -->
    <title>registrationlogo</title>
    <desc>Created with Sketch.</desc>
    <defs>
        <linearGradient x1="0%" y1="20.1435811%" x2="100%" y2="100%" id="linearGradient-1">
            <stop stop-color="#1E3D5D" offset="0%"></stop>
            <stop stop-color="#458697" offset="100%"></stop>
        </linearGradient>
    </defs>
    <g id="Current" stroke="none" stroke-width="1" fill="none" fill-rule="evenodd">
        <g id="Event_full" transform="translate(-112.000000, -64.000000)" fill="url(#linearGradient-1)">
            <path d="M130.613751,87.6463574 L125.443264,78.8910006 C127.925098,78.3050121 130.475871,76.1334079 130.475871,72.0659586 C130.475871,67.79169 127.545929,64.6549283 122.754612,64.6549283 L112,64.6549283 L112,87.6463574 L116.894727,87.6463574 L116.894727,79.476989 L120.479598,79.476989 L124.995156,87.6463574 L130.613751,87.6463574 Z M122.030743,75.1682504 L116.894727,75.1682504 L116.894727,68.9636669 L122.030743,68.9636669 C123.995528,68.9636669 125.477734,70.1356437 125.477734,72.0659586 C125.477734,73.9962735 123.995528,75.1682504 122.030743,75.1682504 Z M141.885411,88.0599963 C144.470654,88.0599963 147.090367,87.2671884 148.744923,85.7505124 L146.814608,82.9239799 C145.746041,83.9580771 143.781256,84.5785355 142.36799,84.5785355 C139.541457,84.5785355 137.852432,82.8205702 137.576672,80.7179057 L149.951369,80.7179057 L149.951369,79.7527483 C149.951369,74.3065027 146.573318,70.5837526 141.609652,70.5837526 C136.542575,70.5837526 132.992174,74.4788522 132.992174,79.3046395 C132.992174,84.6474753 136.818334,88.0599963 141.885411,88.0599963 Z M145.711571,77.7534936 L137.507732,77.7534936 C137.714552,76.098938 138.886529,74.0652133 141.609652,74.0652133 C144.505124,74.0652133 145.608161,76.1678778 145.711571,77.7534936 Z M159.947643,94.4024595 C164.049562,94.4024595 168.944289,92.8513136 168.944289,86.5088504 L168.944289,70.9973915 L164.532141,70.9973915 L164.532141,73.1345258 C163.187814,71.4455003 161.395379,70.5837526 159.396124,70.5837526 C155.190796,70.5837526 152.054034,73.6171045 152.054034,79.0633501 C152.054034,84.6130054 155.225266,87.5429476 159.396124,87.5429476 C161.429849,87.5429476 163.222284,86.5777902 164.532141,84.9232346 L164.532141,86.6122601 C164.532141,89.8869014 162.050307,90.817589 159.947643,90.817589 C157.844979,90.817589 156.087013,90.2316005 154.742687,88.7493944 L152.777902,91.920626 C154.880566,93.7475312 157.086641,94.4024595 159.947643,94.4024595 Z M160.774921,83.647848 C158.293087,83.647848 156.569592,81.9243525 156.569592,79.0633501 C156.569592,76.2023477 158.293087,74.4788522 160.774921,74.4788522 C162.222657,74.4788522 163.808273,75.2716601 164.532141,76.3746972 L164.532141,81.752003 C163.808273,82.8205702 162.222657,83.647848 160.774921,83.647848 Z M175.459102,69.2049562 C176.906838,69.2049562 178.078815,68.0329793 178.078815,66.5852432 C178.078815,65.137507 176.906838,64 175.459102,64 C174.045836,64 172.839389,65.137507 172.839389,66.5852432 C172.839389,68.0329793 174.045836,69.2049562 175.459102,69.2049562 Z M177.665176,87.6463574 L177.665176,70.9973915 L173.287498,70.9973915 L173.287498,87.6463574 L177.665176,87.6463574 Z M188.006149,88.0599963 C192.625116,88.0599963 195.21036,85.7505124 195.21036,82.7171604 C195.21036,75.9955282 185.351966,78.0637228 185.351966,75.5818893 C185.351966,74.6512018 186.386063,73.9273337 187.971679,73.9273337 C190.005403,73.9273337 191.901248,74.7890814 192.900876,75.8576486 L194.658841,72.8587665 C193.004285,71.54891 190.763741,70.5837526 187.937209,70.5837526 C183.55953,70.5837526 181.112167,73.0311161 181.112167,75.8231787 C181.112167,82.3724613 191.005031,80.1319173 191.005031,82.88951 C191.005031,83.9236072 190.108813,84.6819452 188.212968,84.6819452 C186.144774,84.6819452 183.66294,83.5444382 182.456493,82.4069312 L180.560648,85.4747531 C182.318614,87.0948388 185.110676,88.0599963 188.006149,88.0599963 Z M204.034656,88.0599963 C205.861561,88.0599963 207.033538,87.5774176 207.688467,86.9914291 L206.757779,83.6823179 C206.51649,83.9236072 205.896031,84.1648966 205.241103,84.1648966 C204.275946,84.1648966 203.724427,83.3720887 203.724427,82.3379914 L203.724427,74.8235513 L207.102478,74.8235513 L207.102478,70.9973915 L203.724427,70.9973915 L203.724427,66.4473635 L199.312279,66.4473635 L199.312279,70.9973915 L196.554686,70.9973915 L196.554686,74.8235513 L199.312279,74.8235513 L199.312279,83.5099683 C199.312279,86.4743805 200.966834,88.0599963 204.034656,88.0599963 Z M214.479039,87.6463574 L214.479039,76.6504565 C215.202907,75.5818893 217.133222,74.7546115 218.580958,74.7546115 C219.063536,74.7546115 219.477175,74.7890814 219.787405,74.8580212 L219.787405,70.5837526 C217.71921,70.5837526 215.651015,71.7901994 214.479039,73.2724054 L214.479039,70.9973915 L210.10136,70.9973915 L210.10136,87.6463574 L214.479039,87.6463574 Z M236.884479,87.6463574 L236.884479,76.8917459 C236.884479,72.1004285 233.403018,70.5837526 229.611328,70.5837526 C226.991615,70.5837526 224.371902,71.4110304 222.338178,73.2034656 L223.992733,76.1334079 C225.406,74.8235513 227.060555,74.1686231 228.85299,74.1686231 C231.059065,74.1686231 232.506801,75.2716601 232.506801,76.9606857 L232.506801,79.2012297 C231.403764,77.8913732 229.438979,77.1675051 227.232905,77.1675051 C224.578722,77.1675051 221.44196,78.6497112 221.44196,82.5448109 C221.44196,86.267561 224.578722,88.0599963 227.232905,88.0599963 C229.404509,88.0599963 231.369294,87.2671884 232.506801,85.9228619 L232.506801,87.6463574 L236.884479,87.6463574 Z M228.99087,85.0955841 C227.267375,85.0955841 225.854108,84.1993665 225.854108,82.6482206 C225.854108,81.0281349 227.267375,80.1319173 228.99087,80.1319173 C230.404136,80.1319173 231.782933,80.614496 232.506801,81.5796534 L232.506801,83.647848 C231.782933,84.6130054 230.404136,85.0955841 228.99087,85.0955841 Z M246.811813,88.0599963 C248.638718,88.0599963 249.810695,87.5774176 250.465623,86.9914291 L249.534936,83.6823179 C249.293646,83.9236072 248.673188,84.1648966 248.01826,84.1648966 C247.053102,84.1648966 246.501584,83.3720887 246.501584,82.3379914 L246.501584,74.8235513 L249.879635,74.8235513 L249.879635,70.9973915 L246.501584,70.9973915 L246.501584,66.4473635 L242.089435,66.4473635 L242.089435,70.9973915 L239.331843,70.9973915 L239.331843,74.8235513 L242.089435,74.8235513 L242.089435,83.5099683 C242.089435,86.4743805 243.743991,88.0599963 246.811813,88.0599963 Z M255.050121,69.2049562 C256.497857,69.2049562 257.669834,68.0329793 257.669834,66.5852432 C257.669834,65.137507 256.497857,64 255.050121,64 C253.636855,64 252.430408,65.137507 252.430408,66.5852432 C252.430408,68.0329793 253.636855,69.2049562 255.050121,69.2049562 Z M257.256195,87.6463574 L257.256195,70.9973915 L252.878517,70.9973915 L252.878517,87.6463574 L257.256195,87.6463574 Z M269.320663,88.0599963 C274.835849,88.0599963 278.14496,84.0614869 278.14496,79.3046395 C278.14496,74.582262 274.835849,70.5837526 269.320663,70.5837526 C263.839948,70.5837526 260.530837,74.582262 260.530837,79.3046395 C260.530837,84.0614869 263.839948,88.0599963 269.320663,88.0599963 Z M269.320663,84.1648966 C266.597541,84.1648966 265.080865,81.9243525 265.080865,79.3046395 C265.080865,76.7193963 266.597541,74.4788522 269.320663,74.4788522 C272.043786,74.4788522 273.594932,76.7193963 273.594932,79.3046395 C273.594932,81.9243525 272.043786,84.1648966 269.320663,84.1648966 Z M297,87.6463574 L297,75.8921185 C297,72.6519471 295.242035,70.5837526 291.588224,70.5837526 C288.865102,70.5837526 286.831377,71.8936091 285.76281,73.1689957 L285.76281,70.9973915 L281.385131,70.9973915 L281.385131,87.6463574 L285.76281,87.6463574 L285.76281,76.443637 C286.486678,75.4440097 287.831004,74.4788522 289.5545,74.4788522 C291.415875,74.4788522 292.622322,75.2716601 292.622322,77.581144 L292.622322,87.6463574 L297,87.6463574 Z" id="registrationlogo"></path>
        </g>
    </g>
</svg>