<?xml version="1.0" encoding="UTF-8"?>
<svg width="106px" height="23px" viewBox="0 0 106 23" version="1.1" xmlns="http://www.w3.org/2000/svg" xmlns:xlink="http://www.w3.org/1999/xlink">
    <!-- Generator: Sketch 41.2 (35397) - http://www.bohemiancoding.com/sketch -->
    <title>ucdavislogo</title>
    <desc>Created with Sketch.</desc>
    <defs>
        <filter x="-50%" y="-50%" width="200%" height="200%" filterUnits="objectBoundingBox" id="filter-1">
            <feOffset dx="0" dy="1" in="SourceAlpha" result="shadowOffsetOuter1"></feOffset>
            <feGaussianBlur stdDeviation="1.5" in="shadowOffsetOuter1" result="shadowBlurOuter1"></feGaussianBlur>
            <feColorMatrix values="0 0 0 0 0.36030506   0 0 0 0 0.36030506   0 0 0 0 0.36030506  0 0 0 0.5 0" type="matrix" in="shadowBlurOuter1" result="shadowMatrixOuter1"></feColorMatrix>
            <feMerge>
                <feMergeNode in="shadowMatrixOuter1"></feMergeNode>
                <feMergeNode in="SourceGraphic"></feMergeNode>
            </feMerge>
        </filter>
    </defs>
    <g id="Current" stroke="none" stroke-width="1" fill="none" fill-rule="evenodd" fill-opacity="0.98">
        <g id="Event_full" transform="translate(-1177.000000, -10.000000)" fill="#FFFFFF">
            <g id="UC-Davis-Registration-Header" filter="url(#filter-1)">
                <g id="ucdavislogo" transform="translate(1180.000000, 12.000000)">
                    <path d="M87.3826287,14.8271145 L88.9775024,10.6836413 L89.2522617,10.919324 C90.2295042,11.7036081 91.5559681,12.3709027 92.8068155,12.3975944 C93.9266328,12.4225825 94.472688,12.1295408 94.3237638,11.1976001 C94.214091,10.50191 93.4146338,10.3792414 92.9159111,10.2826966 L91.8214918,10.0680266 C89.6932618,9.6761685 87.9015543,8.38303685 87.9015543,5.93534365 C87.9015543,2.23143297 91.1449837,0.156288902 94.4074615,0.156288902 C96.1206664,0.156288902 97.6941828,0.585629054 99.1655303,1.52722426 L97.7830755,5.19989987 C97.0246013,4.66208886 95.8776545,3.90506449 94.4253555,3.85395257 C93.9479901,3.83577944 92.8524163,4.0828204 93.2033694,5.17491182 C93.3551796,5.64003032 94.032265,5.83539145 94.4490217,5.93534365 L95.6854385,6.22838534 C97.9914539,6.7576777 99.6613669,8.04910562 99.6613669,10.6938637 C99.6613669,14.4153796 96.3977346,16.2571125 93.1577685,16.2571125 C91.2650465,16.2571125 89.0756307,15.7272523 87.3826287,14.8271145 L87.3826287,14.8271145 Z" id="Fill-1"></path>
                    <polygon id="Fill-3" points="80.6551246 16.023531 86.2097644 16.023531 86.2097644 0.410542323 80.6551246 0.410542323"></polygon>
                    <polygon id="Fill-5" points="74.3928065 0.410258368 80.0813626 0.410258368 74.2704347 16.0232471 69.6549406 16.0232471 63.8630612 0.410258368 69.5319916 0.410258368 71.9632649 9.83188949"></polygon>
                    <path d="M58.6673401,4.91639907 L58.6673401,4.91639907 C58.7689318,5.58142198 59.7629139,10.3592509 59.7629139,10.3592509 L57.5792703,10.3592509 L58.6673401,4.91639907 Z M50.3887738,16.0235878 L56.1598731,16.0235878 L56.5991416,14.0625937 L60.715913,14.0625937 L61.2631227,16.0235878 L67.0376853,16.0235878 L61.6331241,0.410031204 L55.5786071,0.410031204 L50.3887738,16.0235878 Z" id="Fill-6"></path>
                    <path d="M36.1200511,0.410258368 L41.8086072,0.410258368 C46.8858816,0.410258368 50.7648361,2.70347997 50.7648361,8.44278101 C50.7648361,13.0655705 47.60395,16.0232471 43.1633551,16.0232471 L36.1200511,16.0147284 L36.1200511,0.410258368 Z M41.7110561,11.5407314 L42.0839437,11.5407314 C43.9143254,11.5407314 45.2713822,10.4594303 45.2713822,8.42176833 C45.2713822,6.22849892 44.0684445,5.00465233 42.0585458,5.00465233 L41.7110561,5.00465233 L41.7110561,11.5407314 Z" id="Fill-7"></path>
                    <path d="M32.7981768,0.89996738 L33.0948706,3.46237845 C33.1641377,4.07061033 33.5173996,5.52957177 33.08044,5.33421065 C32.8085668,5.21381367 32.5834489,4.55219823 32.3612172,3.96441111 C32.2475038,3.66569032 31.7066436,2.25556916 31.5652234,2.15220949 C30.8812113,1.64904101 29.1760875,1.08169866 28.0227912,1.07658747 C24.523651,1.06352553 22.2095545,3.60265228 22.2095545,8.10902015 C22.2095545,11.3409974 23.7824936,15.2175528 27.7826655,15.2175528 C29.2159161,15.2175528 31.9617772,14.7740149 32.7081296,12.7664521 C33.0463837,11.8589316 33.3557765,11.0513632 33.5791627,11.2972683 C33.7459808,11.4755921 33.5295213,12.2030852 33.4296613,12.5949432 C32.957491,14.4542814 32.9326703,15.0187842 32.7837461,15.0903409 C30.9764535,15.9847996 28.6577392,16.2778412 26.628792,16.2778412 C20.1782984,16.2778412 17.9507856,12.5750664 17.9507856,8.87285944 C17.9507856,2.44865864 21.9619248,-0.258001629 28.1786421,0.0191385756 C29.7515812,0.0770654215 31.3256748,0.352501895 32.7981768,0.89996738" id="Fill-8"></path>
                    <path d="M13.7508938,1.18449042 L12.7176604,0.830114419 C12.3719024,0.522874971 12.7944314,0.437120523 12.7944314,0.437120523 C12.7944314,0.437120523 14.2871362,0.709717445 18.0061993,0.399638446 C18.0061993,0.399638446 18.3288683,0.462676484 18.1060593,0.72050774 L16.8858048,1.23446652 C16.0909655,1.57578058 16.0909655,1.38041946 16.0909655,2.23739603 L16.0840388,10.1943866 C16.0840388,16.4169793 9.65028473,16.2778412 8.39770567,16.2778412 C7.79970018,16.2778412 1.89930238,16.2778412 1.89930238,11.2819347 L1.89930238,2.85925776 C1.89930238,1.39064184 2.05919381,1.42925974 1.56335721,1.25775084 L0.0712296114,0.706309983 C0.0712296114,0.706309983 -0.182749554,0.353637715 0.268063465,0.376354126 C1.48889514,0.437120523 3.25405034,0.694383868 7.40776415,0.399638446 C7.40776415,0.399638446 7.76910723,0.485960805 7.53129038,0.74322415 L6.28910137,1.08680985 C5.34418342,1.50365598 5.46886411,1.18449042 5.44346619,2.13971547 L5.47405913,10.4454029 C5.47405913,12.4813612 6.53903995,15.0028827 9.88867881,15.0028827 C14.4487593,15.0028827 14.491474,11.121784 14.491474,10.2596963 L14.5001323,2.03181252 C14.5486193,1.25775084 14.4487593,1.47810002 13.7508938,1.18449042" id="Fill-9"></path>
                </g>
            </g>
        </g>
    </g>
</svg>